<?xml version="1.0" encoding="UTF-8"?>
<svg id="Layer_1" data-name="Layer 1" xmlns="http://www.w3.org/2000/svg" viewBox="0 0 656.94 552.66">
  <defs>
    <style>
      .cls-1 {
        stroke: #000;
        stroke-miterlimit: 10;
        stroke-width: 6px;
      }
    </style>
  </defs>
  <path class="cls-1" d="M484.4,183.7c-5.73,0-22.2-3.92-25.45-4.71l2.36-9.72c7.06,1.71,19.58,4.43,23.09,4.43,3.93,0,17.99-5,24.66-8.77,2.3-1.3,3.49-2.11,4.45-2.76.76-.52,1.39-.93,2.05-1.29-2.09-.03-4.39-.16-6.74-.49-5.3-.75-8.1-.22-8.51-.14l-.38.13h-.25c-.2.03-5.06.75-18.37,2.45-14.56,1.86-32.04-5.17-32.78-5.47l3.77-9.26-1.88,4.63,1.88-4.63c.16.06,15.82,6.34,27.75,4.81,11.57-1.48,16.79-2.22,17.93-2.38,1.39-.33,5.39-1,12.24-.04,5.46.77,10.87.21,12.24.05l15.72-4.74c3.08-1.6,10.41-5.61,13.19-7.99,1.51-1.29,5.51-4.72,9.67-2.81,1.12.51,3.72,2.19,3.72,6.6,0,3.36-2.71,7.74-4.33,10.05l-.32.46-.42.38c-1.82,1.65-11.17,9.96-17.16,11.63-2.7.75-6.4,1.56-9.97,2.35-3.44.76-7,1.54-9.44,2.22-2.4.67-2.62.81-4,1.75-1.05.72-2.5,1.7-5.16,3.21-6.12,3.46-22.4,10.07-29.58,10.07ZM554.8,141.24h0Z"/>
  <path class="cls-1" d="M402.22,437.85c-1.35,0-2.79-.12-4.36-.41-10.62-1.93-16.95-8.79-16.95-18.34,0-2.76-.2-5.65-.38-8.45-.4-5.98-.79-11.62.56-16.57,1.62-5.94,1.67-21.83-.38-25.8-3.12-6.04-7.4-22.68-7.88-24.56l9.69-2.47c1.22,4.79,4.87,18.17,7.07,22.44,3.77,7.3,2.98,26.29,1.14,33.02-.9,3.32-.58,8.15-.23,13.26.2,2.96.41,6.02.41,9.12,0,4.58,2.94,7.44,8.74,8.5,3.8.69,6.04-.11,10.49-1.71,1.1-.4,2.29-.82,3.59-1.26.96-.32,1.79-.57,2.5-.79l-.07-.38c-.56-2.94-.43-5.36-.32-7.3.13-2.43.21-3.89-.8-6.15l-.21-.46c-2.42-5.37-2.57-6.14-2.31-11.84.03-.57.06-1.21.08-1.94.18-4.6.12-9.31.06-14.3-.03-2.56-.06-5.15-.06-7.77,0-7.86,1.63-14.81,1.84-15.69l5.41-24.78,9.77,2.13-5.46,24.98c-.01.06-1.56,6.39-1.56,13.35,0,2.58.03,5.13.06,7.65.06,5.12.13,9.96-.07,14.82-.03.74-.06,1.4-.09,1.99q-.17,3.72,1.44,7.28l.21.46c2.01,4.47,1.82,7.98,1.67,10.79-.09,1.68-.17,3.14.16,4.88l.09.48c1.3,6.78-.17,9.3-6.55,11.23-.73.22-1.6.48-2.64.83-1.23.41-2.34.81-3.38,1.18-3.74,1.34-7.09,2.54-11.29,2.54Z"/>
  <path class="cls-1" d="M342.37,448.77c-2.7,0-5.05-.71-7.44-1.58l-.67-.24c-7.63-2.72-11.59-12.98-11.02-21.33.42-6.12.16-15.87.02-20.02-2.06-2.22-5.18-6.47-5.45-12.03-.12-2.39.11-5.81.37-9.78.25-3.87.72-10.96.26-13.04-2.51-3.86-11.35-20.15-13.16-23.5l8.79-4.76c4.25,7.85,11.5,21.02,12.83,22.93,2.09,2.98,1.99,7.83,1.26,19.03-.22,3.35-.45,6.81-.36,8.64.14,2.95,2.63,5.68,3.58,6.48l1.67,1.41.13,2.21c.03.59.63,14.65.04,23.12-.45,6.52,3.01,10.72,4.4,11.22l.74.27c3.19,1.16,4.95,1.8,10.17-1.29,4.94-2.93,5.33-4.96,6.19-9.4.12-.61.24-1.24.38-1.89.27-1.26.55-2.46.83-3.66.99-4.23,1.85-7.87,1.85-13.58,0-7.88-1.2-16.13-2.2-21.66-1.2-6.57-.29-10.29.17-11.6,1.25-4.18,3.18-11.74,3.18-14.7,0-5.53,4.33-16.77,5.2-18.97l9.3,3.68c-2.17,5.48-4.5,12.89-4.5,15.29,0,5.43-3.26,16.47-3.64,17.71l-.1.35c-.12.52-.46,2.61.24,6.45,1.57,8.63,2.36,16.52,2.36,23.45s-1.08,11.45-2.12,15.87c-.26,1.12-.53,2.25-.78,3.43-.12.59-.24,1.16-.34,1.72-.99,5.1-2.11,10.89-10.91,16.1-4.59,2.72-8.15,3.66-11.25,3.66ZM365.21,377.93h0Z"/>
  <path class="cls-1" d="M224.55,461.53c-7.29,0-17.4-2.04-22.9-9.85-5.26-7.47-5.42-11.15-5.25-17.52.03-1,.06-2.1.06-3.34,0-1.94.06-3.98.13-5.96.18-5.61.38-11.96-1.07-15.03-2.55-5.39-10.26-22.18-10.59-22.9l-.23-.59c-.26-.82-6.33-20.15-7.5-24.66-1.18-4.6-2.79-16.79-2.97-18.17l9.92-1.29c.47,3.57,1.87,13.57,2.74,16.96,1.02,3.97,6.47,21.35,7.26,23.85,1.05,2.29,8.06,17.54,10.41,22.5,2.49,5.25,2.26,12.56,2.03,19.63-.06,1.98-.12,3.85-.12,5.64,0,1.34-.03,2.52-.06,3.6-.13,5.04-.17,6.4,3.43,11.51,3.91,5.55,14.17,6.01,18.26,5.36,1.37-.22,2.51-.78,4.08-1.57,2.99-1.49,6.71-3.35,13.26-3.35,3.17,0,3.75,0,4.35-8.21l.27-3.49c.55-7.06,1.23-15.85,1.23-21.56,0-6.44,2.7-24.83,3.14-27.78v-27.04c0-9.11,2.43-11.89,7.23-14.09,1.26-.58,2.26-1.04,3.49-2.4,2.88-3.18,4.69-7.2,6.8-11.86,1.35-2.98,2.74-6.07,4.56-9.25,3.44-6.02,4.95-10.6,8.26-20.62.79-2.41,1.69-5.11,2.72-8.19,4.43-13.14-3.69-24.02-4.04-24.48l7.91-6.12c.48.62,11.78,15.46,5.61,33.79-1.03,3.06-1.92,5.74-2.7,8.13-3.42,10.35-5.13,15.55-9.08,22.45-1.58,2.77-2.88,5.64-4.13,8.41-2.24,4.97-4.56,10.11-8.5,14.45-2.61,2.88-5.09,4.02-6.73,4.77-.32.15-.74.34-.96.47-.13.33-.44,1.45-.44,4.54v27.78l-.06.37c-.86,5.69-3.08,21.59-3.08,26.66,0,6.1-.7,15.1-1.26,22.33l-.26,3.45c-.48,6.54-1.28,17.48-14.32,17.48-4.2,0-6.33,1.06-8.8,2.3-1.92.96-4.09,2.04-6.98,2.5-1.4.22-3.15.37-5.1.37Z"/>
  <path class="cls-1" d="M132.81,489.77c-9.21,0-19.17-2.49-23.61-13.06-5.85-13.93-10.1-31.19-10.1-41.05,0-6.49-2.77-27.78-4.23-38.13-.28-2.14-2.62-20.51-2.62-25.54,0-1.1.09-2.48.2-4.07.35-5.23.99-14.97-2.11-19.27-5.61-7.79-4.93-21.63-4.48-30.79.05-.94.09-1.81.12-2.59.29-7.45,3.58-47.08,3.72-48.76v-.13c1.88-17.13,5.48-50.75,5.7-55.37.34-7.19,14.61-42.3,28.08-57.6,13.09-14.88,34.11-33.3,45.24-37.12,9.73-3.34,47.08-13.7,62.53-13.4,4.77.1,13.57-.47,22.89-1.08,19.04-1.23,40.63-2.63,49.44-.17,7.45,2.08,27.9,2.62,42.84,3.01,8.47.22,15.79.42,19.72.83.59.06,60.92,7.47,70.2,13.66,2.53,1.69,3.8,2.51,4.92,3.23,1.89,1.22,3.39,2.19,9.7,6.52,8.85,6.07,12.81,10.8,14.07,12.49,2.4,2.2,12.33,11.5,16.3,18.6,2.53,4.52,13.65,13.88,20.06,18.72l1.34,1.01.46,1.62c1.52,5.37,5.16,15.12,8.43,18.38,3.94,3.94,6.48,10.57,8.73,16.41.94,2.46,2.24,5.82,2.88,6.64,3.12,3.43,5.67,9.94,6.28,11.6,1.75,3.42,6.02,11.72,6.89,13.23.97,1.71,1.15,3.44,1.28,4.84.13,1.35.22,1.84.48,2.1,2.53,2.53,7.75,9.51,7.75,14.96,0,2.67-1.33,7.19-3.2,13.28-.52,1.69-1.06,3.45-1.2,4.08-.54,2.44-2.31,4.27-4.19,6.21-1.7,1.77-3.64,3.77-4.14,5.68-1.73,6.58-8.21,9-12.09,10.44-.92.34-1.88.7-2.35.96-13.31,7.26-21.05,2.58-24.49-.85s-5.95-7.9-8.33-12.17c-2.41-4.32-4.68-8.4-7.87-11.46-5-4.8-15.58-14.02-21.21-18.89l-1.53,7.63c-2.4,14.2-6.2,38.07-6.2,41.92,0,6.88-6.47,20.98-12.5,25-.31.21-.6.4-.86.58-4.63,3.21-6.11,3.41-26.41,3.68-12.03.16-20.54.93-27.38,1.55-5.36.49-9.59.87-13.4.73-2.28-.08-4.58-.25-6.8-.41-4.74-.34-10.12-.73-12.42.12-4.86,1.8-29.36,2.2-39.66,2.28h-.36s-.36-.05-.36-.05c-15.8-2.18-42.74-5.5-47.76-5.11-8.29.64-34.49-.07-40.53-.27-6.6-.22-16.35,1.8-18.72,2.32l-22.17,10.81c-1.03.94-2.96,2.45-5.52,3.32-1.43,5.2-3.53,13.85-3.53,18.52v28.65c.21,2.81,2.28,31.13,2.28,38.16,0,4.78-1.65,10.67-3.25,16.36-.98,3.5-2,7.12-2.2,9.24-.79,8.33-8.07,14.69-18.55,16.18-.7.1-1.5.23-2.38.37-3.6.58-8.61,1.39-13.87,1.39ZM99.66,267.41c-.15,1.85-3.42,41.16-3.69,48.25-.03.81-.08,1.72-.12,2.7-.33,6.81-.96,19.5,2.61,24.45,5.2,7.22,4.43,18.83,3.97,25.78-.09,1.42-.17,2.64-.17,3.41,0,3.32,1.51,16.29,2.53,24.2.17,1.19,4.32,30.65,4.32,39.47,0,7.27,3.27,22.77,9.32,37.18,3.62,8.63,15.66,7.45,26.67,5.67.95-.15,1.81-.29,2.56-.4,5.65-.81,9.67-3.71,10-7.23.29-3,1.37-6.88,2.52-10.99,1.35-4.81,2.88-10.26,2.88-13.66,0-6.87-2.25-37.3-2.27-37.6v-.37s-.01-28.84-.01-28.84c0-5.85,2.18-14.86,3.61-20.15-3.07-2.24-5.91-5.75-8.09-8.9-.16.1-.35.21-.55.35-4.15,2.83-13.72,7.85-20.25,6.57-2.89-.56-4.46-2.14-5.28-3.36-2.69-4.03-3.98-9-4.12-9.56l9.7-2.42c.23.91,1.03,3.47,2.2,5.56,2.08-.1,7.31-1.78,12.11-5.05,3.71-2.53,7.12-3.2,10.14-2.01,2.42.96,3.9,2.91,4.62,4.73,2.01,2.8,4.59,5.6,5.87,6.36.99-.2,2.11-1.08,2.51-1.5l.65-.71.82-.38,23.92-11.67.55-.13c.53-.12,13.02-3,21.86-2.7,10.1.35,32.76.81,39.42.3,7.55-.58,43.81,4.34,49.53,5.12,15.18-.14,33.15-.82,35.97-1.68,4.27-1.58,10.24-1.15,16.55-.7,2.13.15,4.33.31,6.44.39,3.17.11,7.13-.25,12.15-.7,6.64-.6,15.74-1.42,28.15-1.59,18.45-.24,18.77-.46,20.85-1.9.31-.21.63-.44,1-.68,2.63-1.76,8.05-12.36,8.05-16.68,0-5.96,5.7-39.82,6.35-43.66l.03-.15,3.82-19.09,9.31,1.69,1.03.88c.74.63,18.18,15.59,25.33,22.46,4.27,4.1,7.02,9.03,9.68,13.8,2.14,3.83,4.16,7.46,6.67,9.97,2.59,2.59,6.84,2.3,12.63-.85,1.1-.6,2.33-1.06,3.64-1.55,2.32-.87,5.5-2.05,5.91-3.62,1.17-4.44,4.32-7.7,6.62-10.08.6-.62,1.39-1.44,1.72-1.88.24-.96.65-2.31,1.3-4.41.88-2.86,2.71-8.8,2.76-10.35-.11-1.34-2.62-5.67-4.82-7.87-2.83-2.83-3.16-6.19-3.36-8.19-.03-.35-.08-.82-.13-1.06-1.36-2.45-6.53-12.53-7.13-13.71l-.25-.59c-.93-2.58-2.92-6.96-4.42-8.61-1.73-1.9-2.89-4.79-4.79-9.74-1.7-4.43-4.03-10.49-6.47-12.93-5.22-5.22-9.13-16.7-10.5-21.11-4.46-3.45-17.61-13.95-21.45-20.81-2.94-5.25-11.6-13.64-14.69-16.43l-.49-.44-.36-.55h0s-2.96-4.26-11.76-10.3c-6.2-4.25-7.64-5.18-9.47-6.36-1.14-.74-2.44-1.58-5.04-3.31-5.26-3.4-49.84-10.37-65.7-12.04-3.54-.37-10.68-.56-18.94-.78-17.17-.45-36.62-.96-45.26-3.38-7.18-2-29.68-.55-46.11.51-9.95.64-18.56,1.2-23.74,1.1-13.35-.25-49.14,9.45-59.09,12.86-8.12,2.78-27.65,19.11-40.98,34.26-12.33,14.01-25.31,47.15-25.6,51.47-.29,6.02-5.42,53.11-5.73,55.91ZM171.01,351.67h0ZM527.61,252.27h0Z"/>
</svg>