<?xml version="1.0" encoding="UTF-8"?>
<svg id="Capa_1" data-name="Capa 1" xmlns="http://www.w3.org/2000/svg" viewBox="0 0 2583.04 2060">
  <defs>
    <style>
      .cls-1 {
        fill: none;
      }
    </style>
  </defs>
  <rect class="cls-1" width="2583.04" height="2060"/>
  <g>
    <path d="M850.23,677.26c-.26.08-.52.17-.79.25.24-.18.52-.22.79-.25Z"/>
    <path d="M979.12,694.26c-.11-23.13-68.23-33.08-63.45-21.95,61.47,15.06,8.1,63.53-26.95,32.31-4.02-5.49,10.41-27.78,3.02-25.07-1.37-.56-.15-.99.33-1.36,2.51-2.93-3.45-3.18-5.04-1.35,6.24,20.57-21.53,18.51-34.32,19.55-16.99-.04-31.81,12.11-48.24,13.16,12.08-12.95,30.19-29.99,50.37-23.92,6.9,1.7,13.8,2.69,20.25-1.62.01-2.65-4.77-4.86-.58-7.65-7.05,2.75-22.59-6.47-6.29-5.6,3.29-2.9,2.7-6.71,8.04-6.62,68.92,12.25,30.09-69.95-15.57-36.21-3.67,12.14-.57,27.8-18.55,27.42,10.62-3.82,17.14-21.75,3.37-24.62-2.11-.65-2.25-1.83-.88-3.19,20.53-11.59,0-8.63-10.08-4.28-12.72,3.88-.85-34.36-35.3-14.9,3.2-6.91.99-32.27-9.48-20.57-19.29-22.96-57.47,7.1-34.77,28.78-18.28-3.36-12.43,4.78-20.37,7.05-19.41-21.45-7.07-3.06-8.68,7.67-8.99,4.44-22.74.33-26.29,12.07-21.13,9.64-19.13-29.43-52.83-15.47-18.98,3.5-25.7,26.23-27.48,40.08-9.95,3.42-29.78,2.17-26.76,17.23.56,4.17-6.11,2.09-5.42,6.98-1.51,6.1-12.08,8.92-1.85,15.13,11.18,8.89-9.2,15.26-5.64,24.77-5.37,8.37-2.44,18.09-11.21,25.79-10.49,12.92,23.06,37.43,1.43,33.85,45.67,31.29,101.62-9.87,142.3,1.22,36.21,22.25,59.32,34.73,51.77,81.66-25.51-24.36-55.99-44.09-82.03-68.66-4.2-7.19-24.03-4.2-14.3,4.41,60.19,40.06-57.6-2.36-87.92,18.42,41.69,26.64,83.36,56.14,134.78,62.01,55.89,25.47,52.37,65.05,103-3.72,45.93-36,108.96-23.78,153.35-60.58,5.45-2.92,3.63-6.79-2.37-5.71-47.14,6.57-106.19-12.65-142.41,27.21-13.79,2,35.81-38.27,49.13-46.21,44.16-58.8-85.93,56.79-85.8,73.69-3.58,10.9-10.06-49.44,1.44-50.94,83.96-57.33,77.02-49.56,170.12-42.02-5.35-8.37-26.02-8.1-24.2-18.44,14.45,11.59,45.68-11.83,34.79-28.52-8.32-22-2.94-7.17-17.35-18.93,14.33,5.82,33.67-5.04,24.91-22.34ZM897.08,656.55c-7.62-3.63-25.69-8.43-23.33-20.23,3.32,10.52,20.22,10.6,23.33,20.23ZM869.53,627.48c10.05-9.22,45.88,12.45,31.82,25.48,5.24-12.52-32.76-37.29-30.5-17.88-2.26-2.15-2.62-4.85-1.33-7.6ZM860.84,652.08c4.87-2.65,4.86-2.68,3.35-7.89,2.08-4.89,0,9.96,20.82,11.74,10.45,9.7-18.72-6.96-24.32,1.76-3.98,2.82-3.28-4.75.14-5.61ZM880.55,788.57c4.1-.14.01,4.57-2.17,4.25-5.42-.3-.43-4.28,2.17-4.25ZM891.3,720.06c3.39-1.99,19.44-5.65,11.63,1.45-3.42,1.34-16.65,4.08-11.63-1.45ZM819.23,763.8c27.35-11.86,70.39-43.61,83.41-11.5,7.51,8.24-34.81,1.1-44.72,5.92-10.04.63-59.21,17.45-38.69,5.58ZM794.58,782.82c-.52,6.09-7.28,22.87-6.79,7.65,5.5-30.47,36.44-33.96,57.27-50.52,35.35-7.66-52.61,24.27-50.49,42.87ZM875.18,716c2.43,8.32-7.01,28.32-15.81,15.55-1.03-5.08,8.87-6.4,7.96-13.21-.39-5.44,9.37-10.28,7.84-2.34ZM897.46,731.73c-6.92.56-13.97.94-19.18-5.39h26.78c-1.15,4.62-4.56,5.15-7.6,5.39ZM887.07,712.31c5.65.66,1.83,7.67-2.58,7.26-5.95-.8-3.12-7.59,2.58-7.26ZM882.26,701.65c-21.72,7.14-33.09,28.26-49.77,42.32-18.65,10.13-41.06,17.69-50.77,37.42-.94-11.55-.37-26.4,14.48-28.32,9.76-1.48,10.88-15.14,22.23-15.13,26.08-7.42,29.06-36.73,63.84-36.29ZM781.55,896.59c-12.01,10.79-5.32-17.72-.16-22.36.9,7.51.97,14.95.16,22.36ZM775.18,794.05c-9.93-10,3.12-34.25-11.66-39.63-26-6.12-7.35-17.31,5.06,0,8.25,9.94,10.65-15.81,23.53-7.37-19.57,10.68-17.87,26.76-16.93,46.99ZM760.55,776.67c-95.25-26.05-34.48-35.98-95.65-80.75,30.97-.28,31.42,44.76,64.67,44.99,14.17-.48,13.36,17.74,27.04,18.25,7.32,1.32,2.66,12.25,3.94,17.5ZM711.23,763.45c-6.81,3.6-13.09-8.86-18.92-11.92-8.23-14.85,16.39,7.23,18.92,11.92ZM638.07,743.89c-6.49-12.67,19.83-5.47,23.57-.77-4.44,7.2-16.39.31-23.57.77ZM654.45,758.46c-2.67,3.89-7.65-1.79-10.2,5.99-5.82-8.42,6.8-8.76,10.2-5.99ZM632.16,729.15c1.91-10.72,14.69-.1-1.41,9.15-3.66,3.89-12.27-4.82-4.2-5.64,3.75.35,7.98,2.03,5.61-3.51ZM656.93,701.98c1.1-8.35,16.97,21.54,12.77,25.36-11.67-1.75-10.55-16.46-12.77-25.36ZM656.12,683.95c22.02-7.73,35.92,3.8,41.91-20.24,22.37,20.82-31.42,31.66-41.91,20.24ZM671.49,737.22c10.83,8.95-27.82-6.26-26.83-12.43,8.13-3.16,20.21,6.68,26.83,12.43ZM656.97,756.42c26.59-15.89,33.94-15.2,12.65-45.25,36.26,15.96,13.08,52.41-12.65,45.25ZM693.57,708.67c15.1,6.13,30.74,12.78,42.6,26-17.99.13-30.81-14.47-42.6-26ZM709.78,677.79c27.72-28.51,81.24,70.13,44.97,33.05-9.28-19.94-41.56-8.81-44.97-33.05ZM710.78,656.24c2.23-2.68,3.67-.1,5.23.98,16.15,10.58-13.61,12.06-5.23-.98ZM766.05,645.09c3.68-.39,3.25,4.61.08,4.71-2.96-.1-3.26-4.36-.08-4.71ZM759.26,639.49c-3.77-1.61-15.24-4.27-9.42-9.73,7.17-6.88,22.17,9.08,9.42,9.73ZM767.9,671.93c.81,7.41,1.61,14.7,2.43,22.13-6.32-4.53-7.63-16.45-2.43-22.13ZM740.31,708.65c6.1,9.62,25.74,18.65,22.88,30.46-8.57-3.44-47.09-47.23-22.88-30.46ZM777.17,693.24c-6.05-64.28,15.47-15.85,5.43,1.39-10.51,14.05.5,31.54-7.3,46.54-5.1-17.37-1.25-31.94,1.87-47.93ZM786.36,652.66c-.52-2.93,1.74-8.6,4.31-9.55-.12,2.71-2.82,6.85-4.31,9.55ZM790.43,693.73c27.28-14.82,19.98-34.3,32.11-35.39,1.47,22.36-63.43,84.6-32.11,35.39ZM775.9,646.49c-4.94-3.98-5.05-12.41,0-17.46v17.46ZM819.1,725.8c3.08-.99,7-5.53,9.99-2.67,4.47,7.98-18.62,11.35-9.99,2.67ZM850.76,700.1c21.4,2.91-39.87,20.42-44.16,29.52-22.66,4.42,31.02-29.31,44.16-29.52ZM821.5,688.23c-12.01,6.65-25.7,31.75-31.68,33.55,5.9-27.05,45.25-32.84,40.15-61.22,7.27-4.89.03,17.15,9.51,17.42-8.03,1.57-13.53,5.01-17.97,10.25ZM855.58,676.77c-3.68,1.87-7.8.77-11.5-.18,3.76-1.26,7.68.5,11.5.18ZM844.14,660.86c7.17-.52,10.66,9.93,2.31,11.49-2.38.95-8.36-11.39-2.31-11.49ZM844.16,647.3c-2.74,3.9-5.83,4.65-10.48,2.19,3.97-.83,7.06-1.48,10.48-2.19ZM836.85,636.07c18,4.39-10.04,16.78-8.26,5.54,1-3.05,4.73-5.47,8.26-5.54ZM828.45,631.21c2.19,6.8-20.17,22.77-21.78,35.46-2.22,4.65-10.14,19.42-15.23,11.24-.61-3-6.74-10.04-1.62-11.05,17.79-4.89,21.07-28.53,38.64-35.65ZM822.52,612.95c1.91,6.78.67,11.79-3.08,13.59.98-4.35,1.92-8.49,3.08-13.59ZM808.82,609.1c2.48-1.51,6.51-1.08,10.38-.63-3.42,1.38-8.7,2.62-10.38.63ZM808.64,620.01c11.16-13.65,10.51,15.55.55,10.28-3.76-2.96-4-6.97-.55-10.28ZM805.13,637.11c13.46-.43-6.87,13.14-12.48,14.8,3.18-6.41,6.61-11.73,12.48-14.8ZM801.05,634.2c-2.06.82-5.11,5.37-6.75,3.76,1.36-2.37,3.21-4.17,6.75-3.76ZM787.93,604.46c-.24-3.99,6.48-6.78,7.01-1.64.21,4.73-7.35,7.64-7.01,1.64ZM791.58,621.98c4.15,6.26-5.35,21.19-10.87,24.16-1.7-6.32-.1-26.73,10.87-24.16ZM776.6,596.26c.73-7.88,7.42-6.74,8.38.74.75,7.26-11.5,6.01-8.38-.74ZM773.46,606.07c3.25-2.27,8.55,6.86,8.86,9.47-4.91,19.2-21.9.76-8.86-9.47ZM762.61,591.92c1.22-2.67,8.48-7.39,8.64-2.59,3.45,3.89-11.08,7.63-8.64,2.59ZM756.99,595.1c2.34,4.34,7.44,7.32,6.52,13.25-3.61-3.71-7.28-7.4-6.52-13.25ZM746.89,621.92c8.73.73,9.68,4.4.07,3.16-2.86,1.13-2.95-3.23-.07-3.16ZM747.08,648.42c3.72,7.65,15.58,8.18,18.69,12.87-4.66,14.92-26.48-16.79-18.69-12.87ZM743.77,655.54c2.27,3.72,19.32,17.44,10.35,17.45-5.24-5.15-18.24-8.25-10.35-17.45ZM739.87,667.97c3.93,4.32,14.2,6.24,13.6,12.78-4.15-1.88-26.55-14.81-13.6-12.78ZM722.77,640.27c16.97-5.18,14.79,33.64,2.31,21.78,1.02-7.61-.96-15.21-2.31-21.78ZM721.71,648.02c4.09,6.74-3.17,6.62-8.09,2.91,3.43-1.3,5.41-4.26,8.09-2.91ZM710.77,640.76c10.89-.76,6.06,4.68-.29,8.53-5.48,2-5.58-8.79.29-8.53ZM737.68,720.86c36.82,37.19-33.42-19.12-46.95-22.99-1.28-16.48,38.34,18.23,46.95,22.99ZM696.03,649.9c3.2.57,9.16,2.87,8.62,6.77-4.09,4.83-18.26-5.48-8.62-6.77ZM685.86,668.83c-4.87,3.76-9.33-4.46-2.99-6.02,7.99-4.03,9.3,1.23,2.99,6.02ZM674.79,651.76c3.63-9.17,10.92-2.36,11.92,3.42-2.63,5.03-18.9,4.68-11.92-3.42ZM673.83,666.6c.46,7.9-19,13.77-22.34,6.58,2.22-7.66,16.57-5.61,22.34-6.58ZM630.75,644.52c7.29-15.29,52.47-18.33,38.81,4.28-11.55-35.15-40.09,15.75-38.81-4.28ZM656.24,645.68c-17.33,3.29-.58-10.35,6.1-.83,2.43,2.07-1.45,5.94-4.54,6.24-1.63-1.79,2.35-4.95-1.55-5.41ZM629.21,653.75c8.83,14.74,17.64-5.05,26.92,3.11,38.5-.96-49.21,22.24-26.92-3.11ZM646.96,674.84c.79,8.14-8.94-2.14-5.4-4.75,3.03-1.86,5.77,1.97,5.4,4.75ZM606.07,678.95c6.2-1.72,8.41-10.93,16.02-4.5,5.81.32,18.83-6.52,15.69,6.98,6.74-2.15,10.25-1.78,6.26,5.79,5.56-1.08,11.65.29,6.75,7.27-14.67,7.1-23-24.95-41.19-8.31-9.09,11.83-16.85-9.23-3.53-7.24ZM615.84,699.12c3.67,7.83,19.34,5.82,14.67-4.05-.45-1.15-2.35-2.77-.26-3.79,5.42-1.68,6.72,7.18,3.91,10.39-9.59,16.77-38.24-11.54-12.26-11.03-1.66,3.82-9.51,3.17-6.06,8.47ZM594.44,695.09c5.43-5.88,5.19,4.51,6.17,7.82,6.88,21.43,26.93,2.18,40.7,10.82-.76-4.66-4.01-11.4,2.62-12.48,33.22,16.29-67.24,45.74-49.49-6.15ZM593.7,729.41c3.3-2.88,11.12-4.26,13.75-.52-.9,5.83-21.53,10.63-13.75.52ZM601.08,790.79c-3.77,1.56-13.63,5.77-14.51-.62-.6-5.97,27.74-5.03,14.51.62ZM620.75,796.08c-6.3,1.94-14.26-7.33-5.55-10.92.97-.62.19-1.28-.02-1.92-88.93,3.3,8.4-94.22,19.71-15.35,3.52,14.49,27.93,3.22,35.89-4.62,3.9-2.52,6.67-8.72,11.89-7.48,41.21,14.82-42.94,37.21-61.92,40.29ZM658.18,794.34c19.16-19.4,61.92-27.98,86.82-14.56-30.19-2.4-58.47,3.98-86.82,14.56ZM744.78,807.5c-6.43-6.69-12.43-12.95-18.1-18.85,9.2.35,18.52,9.42,18.1,18.85ZM674.49,808.01c-1.78-.08-7.55-.33-5.55-3.33,3.08-2.24,13.31,3.36,5.55,3.33ZM679.25,814.99c16.11,5.52,70.15,50.9,83.26,77.06-22.5-29.99-55.2-51.93-83.26-77.06ZM623.04,826.57c30.94,1.01,64.28,7.23,90.36,24.05-3.79,1.25-110.77-25.83-90.36-24.05ZM728.01,882.23c-46.62-6.05-93.56-25.21-131.2-52.37,30.68-10.12,207.02,82.13,131.2,52.37ZM764.23,914.98c-7.99,2.45-12.88-11.98-19.01-16.29,7.36-3.45,31.97,6.38,19.01,16.29ZM760.49,812.46c-20.34-23.01-27.47-36.15,7.43-17.9,10.24,14.87,18.32,35.35-7.43,17.9ZM773.3,838.14c10.51-19.77,8.03,31.59,3.08,37.4-7.23-10.57-1.41-25.19-3.08-37.4ZM870.43,795.3c9.67-1.78-16.2,14.68-21.24,17.89,2.78-6.34,15.16-11.95,21.24-17.89ZM847.72,814.53c-1.93,3.18-4.16,4.76-6.69,6.28.31-2.92,2.05-4.66,6.69-6.28ZM824.92,835.98c3.09-3.56,5.41-8.44,10.24-10.03,14.56-15.41-14.55,17.72-10.24,10.03ZM819.81,841.8c.7-3.32,3.81-2.92.91,0-1.05,3.09-4.6,2.35-.91,0ZM817.63,845.05c-3.52,4.96-6.14,10.66-11.52,14.03,3.23-5.19,6.57-10.27,11.52-14.03ZM813.35,866.49c2.63-21.58,159.31-48.8,137.02-32.84-43.09,11.39-81.98,11.03-120.98,38.4-11.24.83,16.83-17.33,1.36-11.61-15.34,11.75-39.41,40.73-17.39,6.05ZM800.26,874.79c-.39,5.92-2.74,10.35-6.69,15.17-.45-6.81,1.66-11.35,6.69-15.17ZM797.05,894.5c11.73-3.4-3.05,24.39-12.02,19.51-26.37.53,3-12.97,12.02-19.51ZM803.97,815.22c-6.73,2.26-18.59,7.35-20.33-2.71,5.36-.27,29.19-8.09,20.33,2.71ZM831.57,786.76c-8.17,2.93-33.96,13.77-11.51,11.28-2.87,11.88-16.22.92-22.31,5.15-1.79-25.32,61.75-27.59,33.81-16.43ZM933.79,775.6c-27.01-4.15-56.02-6.25-82.01,2.54,20.63-16.81,62.89-13.16,82.01-2.54ZM958.13,726.84c21.56,67.72-106.18,18.93-26.88-10.53,12.05-10.66,17.39,6.19,26.88,10.53ZM950.96,711.43c-4.69.26-5.18-4.64-1.7-6.94,7.36-6.72,17.11,11.93,1.7,6.94ZM972.3,708.33c-1.39,4.5-4.27,3.22-7.2.98-8.24-4.6,8.02-10.64-.6-19.17-2.11-2.34-8.01-13.88-10.36-7.21.28,6.37-6.02,5.39-7.11,0,2.76-26.17,35.99,10.53,25.26,25.4Z"/>
    <path d="M915.32,672.34c-7.61-.44-18.71,2.02-21.9,4.32-4.98-7.81-18.25,13-18.2,3.79,0-.88-1.92-.9-1.12-2.3,2.99-4.84-13.08-3.39,2.18-14.06,5.9,12.91,30.82-5.52,39.04,8.25Z"/>
    <path d="M893.79,677.44c-1.03-2.66-5.64-3.88-6.73-.64,2.88-2.75,5.19.02,6.73.64Z"/>
    <path d="M915.32,672.34c.89-.68-.57-3.09-2.1-3.07.55,1.14,1.21,2.18,2.1,3.07Z"/>
    <path d="M876.28,664.09c-3.6,1.42-4.59,5.14-7.39,7.11.49-2.67,2.98-7.23,7.39-7.11Z"/>
    <path d="M875.32,683.84c-6.02-8.21,2.26-6.39-3.52-8.22,1.79-.21,4.6-1.44,2.31,2.54.15,2.04,1.91,3.15,1.21,5.68Z"/>
    <path d="M606.67,758.85c-3.62-.18-9.11,1.66-7.96,6.01,2.91,8.88,17.34-6.64,7.96-6.01ZM606.67,758.85c-3.62-.18-9.11,1.66-7.96,6.01,2.91,8.88,17.34-6.64,7.96-6.01ZM606.67,758.85c-3.62-.18-9.11,1.66-7.96,6.01,2.91,8.88,17.34-6.64,7.96-6.01ZM606.67,758.85c-3.62-.18-9.11,1.66-7.96,6.01,2.91,8.88,17.34-6.64,7.96-6.01ZM606.67,758.85c-3.62-.18-9.11,1.66-7.96,6.01,2.91,8.88,17.34-6.64,7.96-6.01ZM606.67,758.85c-3.62-.18-9.11,1.66-7.96,6.01,2.91,8.88,17.34-6.64,7.96-6.01ZM606.67,758.85c-3.62-.18-9.11,1.66-7.96,6.01,2.91,8.88,17.34-6.64,7.96-6.01ZM606.67,758.85c-3.62-.18-9.11,1.66-7.96,6.01,2.91,8.88,17.34-6.64,7.96-6.01ZM606.67,758.85c-3.62-.18-9.11,1.66-7.96,6.01,2.91,8.88,17.34-6.64,7.96-6.01ZM606.67,758.85c-3.62-.18-9.11,1.66-7.96,6.01,2.91,8.88,17.34-6.64,7.96-6.01ZM606.67,758.85c-3.62-.18-9.11,1.66-7.96,6.01,2.91,8.88,17.34-6.64,7.96-6.01ZM606.67,758.85c-3.62-.18-9.11,1.66-7.96,6.01,2.91,8.88,17.34-6.64,7.96-6.01ZM606.67,758.85c-3.62-.18-9.11,1.66-7.96,6.01,2.91,8.88,17.34-6.64,7.96-6.01ZM606.67,758.85c-3.62-.18-9.11,1.66-7.96,6.01,2.91,8.88,17.34-6.64,7.96-6.01ZM606.67,758.85c-3.62-.18-9.11,1.66-7.96,6.01,2.91,8.88,17.34-6.64,7.96-6.01ZM606.67,758.85c-3.62-.18-9.11,1.66-7.96,6.01,2.91,8.88,17.34-6.64,7.96-6.01ZM606.67,758.85c-3.62-.18-9.11,1.66-7.96,6.01,2.91,8.88,17.34-6.64,7.96-6.01ZM606.67,758.85c-3.62-.18-9.11,1.66-7.96,6.01,2.91,8.88,17.34-6.64,7.96-6.01ZM606.67,758.85c-3.62-.18-9.11,1.66-7.96,6.01,2.91,8.88,17.34-6.64,7.96-6.01ZM606.67,758.85c-3.62-.18-9.11,1.66-7.96,6.01,2.91,8.88,17.34-6.64,7.96-6.01ZM606.67,758.85c-3.62-.18-9.11,1.66-7.96,6.01,2.91,8.88,17.34-6.64,7.96-6.01ZM606.67,758.85c-3.62-.18-9.11,1.66-7.96,6.01,2.91,8.88,17.34-6.64,7.96-6.01ZM606.67,758.85c-3.62-.18-9.11,1.66-7.96,6.01,2.91,8.88,17.34-6.64,7.96-6.01ZM606.67,758.85c-3.62-.18-9.11,1.66-7.96,6.01,2.91,8.88,17.34-6.64,7.96-6.01ZM606.67,758.85c-3.62-.18-9.11,1.66-7.96,6.01,2.91,8.88,17.34-6.64,7.96-6.01ZM606.67,758.85c-3.62-.18-9.11,1.66-7.96,6.01,2.91,8.88,17.34-6.64,7.96-6.01ZM606.67,758.85c-3.62-.18-9.11,1.66-7.96,6.01,2.91,8.88,17.34-6.64,7.96-6.01ZM606.67,758.85c-3.62-.18-9.11,1.66-7.96,6.01,2.91,8.88,17.34-6.64,7.96-6.01ZM606.67,758.85c-3.62-.18-9.11,1.66-7.96,6.01,2.91,8.88,17.34-6.64,7.96-6.01ZM606.67,758.85c-3.62-.18-9.11,1.66-7.96,6.01,2.91,8.88,17.34-6.64,7.96-6.01ZM606.67,758.85c-3.62-.18-9.11,1.66-7.96,6.01,2.91,8.88,17.34-6.64,7.96-6.01ZM606.67,758.85c-3.62-.18-9.11,1.66-7.96,6.01,2.91,8.88,17.34-6.64,7.96-6.01ZM606.67,758.85c-3.62-.18-9.11,1.66-7.96,6.01,2.91,8.88,17.34-6.64,7.96-6.01ZM606.67,758.85c-3.62-.18-9.11,1.66-7.96,6.01,2.91,8.88,17.34-6.64,7.96-6.01ZM606.67,758.85c-3.62-.18-9.11,1.66-7.96,6.01,2.91,8.88,17.34-6.64,7.96-6.01ZM606.67,758.85c-3.62-.18-9.11,1.66-7.96,6.01,2.91,8.88,17.34-6.64,7.96-6.01ZM606.67,758.85c-3.62-.18-9.11,1.66-7.96,6.01,2.91,8.88,17.34-6.64,7.96-6.01ZM606.67,758.85c-3.62-.18-9.11,1.66-7.96,6.01,2.91,8.88,17.34-6.64,7.96-6.01ZM606.67,758.85c-3.62-.18-9.11,1.66-7.96,6.01,2.91,8.88,17.34-6.64,7.96-6.01ZM606.67,758.85c-3.62-.18-9.11,1.66-7.96,6.01,2.91,8.88,17.34-6.64,7.96-6.01ZM606.67,758.85c-3.62-.18-9.11,1.66-7.96,6.01,2.91,8.88,17.34-6.64,7.96-6.01ZM606.67,758.85c-3.62-.18-9.11,1.66-7.96,6.01,2.91,8.88,17.34-6.64,7.96-6.01ZM606.67,758.85c-3.62-.18-9.11,1.66-7.96,6.01,2.91,8.88,17.34-6.64,7.96-6.01ZM606.67,758.85c-3.62-.18-9.11,1.66-7.96,6.01,2.91,8.88,17.34-6.64,7.96-6.01ZM606.67,758.85c-3.62-.18-9.11,1.66-7.96,6.01,2.91,8.88,17.34-6.64,7.96-6.01ZM606.67,758.85c-3.62-.18-9.11,1.66-7.96,6.01,2.91,8.88,17.34-6.64,7.96-6.01ZM606.67,758.85c-3.62-.18-9.11,1.66-7.96,6.01,2.91,8.88,17.34-6.64,7.96-6.01ZM606.67,758.85c-3.62-.18-9.11,1.66-7.96,6.01,2.91,8.88,17.34-6.64,7.96-6.01ZM606.67,758.85c-3.62-.18-9.11,1.66-7.96,6.01,2.91,8.88,17.34-6.64,7.96-6.01ZM606.67,758.85c-3.62-.18-9.11,1.66-7.96,6.01,2.91,8.88,17.34-6.64,7.96-6.01ZM606.67,758.85c-3.62-.18-9.11,1.66-7.96,6.01,2.91,8.88,17.34-6.64,7.96-6.01ZM606.67,758.85c-3.62-.18-9.11,1.66-7.96,6.01,2.91,8.88,17.34-6.64,7.96-6.01ZM606.67,758.85c-3.62-.18-9.11,1.66-7.96,6.01,2.91,8.88,17.34-6.64,7.96-6.01ZM606.67,758.85c-3.62-.18-9.11,1.66-7.96,6.01,2.91,8.88,17.34-6.64,7.96-6.01ZM626.92,765.07c-6.24-2.91.81-9.6-2.84-11.59-5.32-.47-7.17-3.76-6.54-8.85-6.67,3.16-7.36,3.12-11.87-.6-1.74,7.58-9.35.15-11.9,3.19,2.17,6.13-6.68.9-6.46,5.51.41,2.7-1.15,4.15-2.98,5.59-14.96,16.57,27.2,27.65,32.76,16.53-1.22-9.85,13.87-1.87,9.83-9.79ZM613.44,765.58c-5.91,11.98-27.09,4.53-16.92-7.08,6.53-10.74,23.58-2.84,16.92,7.08ZM606.67,758.85c-3.62-.18-9.11,1.66-7.96,6.01,2.91,8.88,17.34-6.64,7.96-6.01ZM606.67,758.85c-3.62-.18-9.11,1.66-7.96,6.01,2.91,8.88,17.34-6.64,7.96-6.01ZM606.67,758.85c-3.62-.18-9.11,1.66-7.96,6.01,2.91,8.88,17.34-6.64,7.96-6.01ZM606.67,758.85c-3.62-.18-9.11,1.66-7.96,6.01,2.91,8.88,17.34-6.64,7.96-6.01ZM606.67,758.85c-3.62-.18-9.11,1.66-7.96,6.01,2.91,8.88,17.34-6.64,7.96-6.01ZM606.67,758.85c-3.62-.18-9.11,1.66-7.96,6.01,2.91,8.88,17.34-6.64,7.96-6.01ZM606.67,758.85c-3.62-.18-9.11,1.66-7.96,6.01,2.91,8.88,17.34-6.64,7.96-6.01ZM606.67,758.85c-3.62-.18-9.11,1.66-7.96,6.01,2.91,8.88,17.34-6.64,7.96-6.01ZM606.67,758.85c-3.62-.18-9.11,1.66-7.96,6.01,2.91,8.88,17.34-6.64,7.96-6.01ZM606.67,758.85c-3.62-.18-9.11,1.66-7.96,6.01,2.91,8.88,17.34-6.64,7.96-6.01ZM606.67,758.85c-3.62-.18-9.11,1.66-7.96,6.01,2.91,8.88,17.34-6.64,7.96-6.01ZM606.67,758.85c-3.62-.18-9.11,1.66-7.96,6.01,2.91,8.88,17.34-6.64,7.96-6.01ZM606.67,758.85c-3.62-.18-9.11,1.66-7.96,6.01,2.91,8.88,17.34-6.64,7.96-6.01ZM606.67,758.85c-3.62-.18-9.11,1.66-7.96,6.01,2.91,8.88,17.34-6.64,7.96-6.01ZM606.67,758.85c-3.62-.18-9.11,1.66-7.96,6.01,2.91,8.88,17.34-6.64,7.96-6.01ZM606.67,758.85c-3.62-.18-9.11,1.66-7.96,6.01,2.91,8.88,17.34-6.64,7.96-6.01ZM606.67,758.85c-3.62-.18-9.11,1.66-7.96,6.01,2.91,8.88,17.34-6.64,7.96-6.01ZM606.67,758.85c-3.62-.18-9.11,1.66-7.96,6.01,2.91,8.88,17.34-6.64,7.96-6.01ZM606.67,758.85c-3.62-.18-9.11,1.66-7.96,6.01,2.91,8.88,17.34-6.64,7.96-6.01ZM606.67,758.85c-3.62-.18-9.11,1.66-7.96,6.01,2.91,8.88,17.34-6.64,7.96-6.01ZM606.67,758.85c-3.62-.18-9.11,1.66-7.96,6.01,2.91,8.88,17.34-6.64,7.96-6.01ZM606.67,758.85c-3.62-.18-9.11,1.66-7.96,6.01,2.91,8.88,17.34-6.64,7.96-6.01ZM606.67,758.85c-3.62-.18-9.11,1.66-7.96,6.01,2.91,8.88,17.34-6.64,7.96-6.01ZM606.67,758.85c-3.62-.18-9.11,1.66-7.96,6.01,2.91,8.88,17.34-6.64,7.96-6.01ZM606.67,758.85c-3.62-.18-9.11,1.66-7.96,6.01,2.91,8.88,17.34-6.64,7.96-6.01ZM606.67,758.85c-3.62-.18-9.11,1.66-7.96,6.01,2.91,8.88,17.34-6.64,7.96-6.01ZM606.67,758.85c-3.62-.18-9.11,1.66-7.96,6.01,2.91,8.88,17.34-6.64,7.96-6.01ZM606.67,758.85c-3.62-.18-9.11,1.66-7.96,6.01,2.91,8.88,17.34-6.64,7.96-6.01ZM606.67,758.85c-3.62-.18-9.11,1.66-7.96,6.01,2.91,8.88,17.34-6.64,7.96-6.01ZM606.67,758.85c-3.62-.18-9.11,1.66-7.96,6.01,2.91,8.88,17.34-6.64,7.96-6.01ZM606.67,758.85c-3.62-.18-9.11,1.66-7.96,6.01,2.91,8.88,17.34-6.64,7.96-6.01ZM606.67,758.85c-3.62-.18-9.11,1.66-7.96,6.01,2.91,8.88,17.34-6.64,7.96-6.01ZM606.67,758.85c-3.62-.18-9.11,1.66-7.96,6.01,2.91,8.88,17.34-6.64,7.96-6.01ZM606.67,758.85c-3.62-.18-9.11,1.66-7.96,6.01,2.91,8.88,17.34-6.64,7.96-6.01ZM606.67,758.85c-3.62-.18-9.11,1.66-7.96,6.01,2.91,8.88,17.34-6.64,7.96-6.01ZM606.67,758.85c-3.62-.18-9.11,1.66-7.96,6.01,2.91,8.88,17.34-6.64,7.96-6.01ZM606.67,758.85c-3.62-.18-9.11,1.66-7.96,6.01,2.91,8.88,17.34-6.64,7.96-6.01ZM606.67,758.85c-3.62-.18-9.11,1.66-7.96,6.01,2.91,8.88,17.34-6.64,7.96-6.01ZM606.67,758.85c-3.62-.18-9.11,1.66-7.96,6.01,2.91,8.88,17.34-6.64,7.96-6.01ZM606.67,758.85c-3.62-.18-9.11,1.66-7.96,6.01,2.91,8.88,17.34-6.64,7.96-6.01ZM606.67,758.85c-3.62-.18-9.11,1.66-7.96,6.01,2.91,8.88,17.34-6.64,7.96-6.01ZM606.67,758.85c-3.62-.18-9.11,1.66-7.96,6.01,2.91,8.88,17.34-6.64,7.96-6.01ZM606.67,758.85c-3.62-.18-9.11,1.66-7.96,6.01,2.91,8.88,17.34-6.64,7.96-6.01ZM606.67,758.85c-3.62-.18-9.11,1.66-7.96,6.01,2.91,8.88,17.34-6.64,7.96-6.01ZM606.67,758.85c-3.62-.18-9.11,1.66-7.96,6.01,2.91,8.88,17.34-6.64,7.96-6.01ZM606.67,758.85c-3.62-.18-9.11,1.66-7.96,6.01,2.91,8.88,17.34-6.64,7.96-6.01ZM606.67,758.85c-3.62-.18-9.11,1.66-7.96,6.01,2.91,8.88,17.34-6.64,7.96-6.01ZM606.67,758.85c-3.62-.18-9.11,1.66-7.96,6.01,2.91,8.88,17.34-6.64,7.96-6.01ZM606.67,758.85c-3.62-.18-9.11,1.66-7.96,6.01,2.91,8.88,17.34-6.64,7.96-6.01ZM606.67,758.85c-3.62-.18-9.11,1.66-7.96,6.01,2.91,8.88,17.34-6.64,7.96-6.01ZM606.67,758.85c-3.62-.18-9.11,1.66-7.96,6.01,2.91,8.88,17.34-6.64,7.96-6.01ZM606.67,758.85c-3.62-.18-9.11,1.66-7.96,6.01,2.91,8.88,17.34-6.64,7.96-6.01ZM606.67,758.85c-3.62-.18-9.11,1.66-7.96,6.01,2.91,8.88,17.34-6.64,7.96-6.01Z"/>
    <path d="M935.68,685.56c-15.89-9.44-42.9-10.92-40.34,14.72,19.36,12.57,34.23,6.92,40.34-14.72ZM923.5,698.92c-2.2,2.81-13.24.76-8.89-2.96,2.16-1.46,6.94-1.68,6.85-4.93-2.54-2.68-10.02-2.6-12.43,1.55-1.63,2.48-5.15.03-4.03-2.6,4.28-15.35,33.18-3.13,18.49,8.93Z"/>
    <path d="M935.02,684.54c.79,2.01,1.55-.15.27-.87.09.48-.04.74-.27.87Z"/>
    <path d="M923.5,679.78c-4.97-3.14-11.94-1.4-17.49-.58-9.91-.31-12.7,16.14-11.84,21.8,19.19,12,38.07,8.69,41.51-15.46-4.71,10.37-9.47,25.51-24.59,20.73-11.79-2.73-19.32-3.52-13.93-17.33,4.33-16.53,26.22-8.43,37-4.45,2.21-2.5-8.81-1.97-10.66-4.71Z"/>
    <path d="M934.55,683.66c.15.29.3.6.47.88.98-.34-.6-1.72-.47-.88Z"/>
    <path d="M935.73,685.65c.14.38.6-1.18-.04-.08.01.02.02.05.04.08Z"/>
    <path d="M626.51,788.06c5.21-4.13,9.66-13.68,16.56-13.18-2.83-3.59-9.6.32-8.16-7.04.26-.96-1.34-1.9-1.29-1.03-1.6,9.77-16,11.03-18.68,18.51-4.56,2.91-4.44,3.09-1.81,8.88,2.81.7,12.15-1.02,13.39-6.15Z"/>
    <path d="M627.17,789.14c.42-5.49,7.62-4.25,9.04-8.42.67-4.16,3.48-5.19,6.86-5.83-10.5-.45-13.61,17.12-23.95,18.49-9.58,1,8.47,2.53,8.04-4.24Z"/>
    <path d="M617.22,782.53c4.49-6.69,15.69-6.81,16.42-16.14-.69,6.97-21.06,14.71-16.42,16.14Z"/>
    <path d="M835.05,825.98h0c-.07.1.05.06.05.05-.02,0-.06-.05-.05-.05Z"/>
    <path d="M835.14,825.96c-.07.03-.12.03-.03.08,0-.03.02-.06.03-.08Z"/>
    <path d="M835.1,826.04l-.04-.06.04.06Z"/>
    <path d="M933.59,774.2c-.26,1.69-1.38.76-2.2.73,1.11,1.27,5.3.62,2.2-.73Z"/>
    <path d="M933.59,774.2c-.25,1.7-1.38.76-2.2.73.67-.44,1.69.15,2.2-.73Z"/>
    <path d="M893.07,677.62c-.6.45-3.01,1.15-1.31,1.89.66.34,1.3-.88,1.31-1.89Z"/>
    <path d="M893.07,677.62s.07,0,.07-.03c-.03.02-.05.02-.07.03Z"/>
    <path d="M657.96,648.14c-1.36,1.04-.07,4.45.84,2.52-1.72-.25-.92-1.53-.84-2.52Z"/>
    <path d="M657.96,648.14c-.09,1.02-.93,2.35,1.02,2.55-1.21-.49-.58-1.73-1.02-2.55Z"/>
    <path d="M948.74,729c-3.4-5.57-8.55,1.66-12.23-2.73-6.52-9.14-7.24,5.52-14.02,3.39-15.78-3.05-11.1,23.56,1.88,23.93,8.5-.17,23.02,5.46,27.77-4.47-.11-9.6,6.56-13.92-3.41-20.12ZM947.01,743.24c-4.92,10.59-26.47,7.02-21.54-4.49,5.89-9.44,25.92-9.44,21.54,4.49Z"/>
    <path d="M626.92,765.07c-6.24-2.91.81-9.6-2.84-11.59-5.32-.47-7.17-3.76-6.54-8.85-6.67,3.16-7.36,3.12-11.87-.6-1.74,7.58-9.35.15-11.9,3.19,2.17,6.13-6.68.9-6.46,5.51.41,2.7-1.15,4.15-2.98,5.59-14.96,16.57,27.2,27.65,32.76,16.53-1.22-9.85,13.87-1.87,9.83-9.79ZM613.44,765.58c-5.91,11.98-27.09,4.53-16.92-7.08,6.53-10.74,23.58-2.84,16.92,7.08Z"/>
    <path d="M944.93,739.39c.35,6.96-12.96,5.84-14.58,1.11.44-5.56,14.34-7.58,14.58-1.11Z"/>
    <path d="M609.26,761.92c-.5,4.66-8.66,8.01-10.55,2.94-2.42-5.37,13.41-9.68,10.55-2.94Z"/>
  </g>
</svg>