<svg viewBox="0 0 800 800" xmlns="http://www.w3.org/2000/svg"><path d="M636.4947913846952,353.9286734904831 L636.2325771818118,172.71551306825086 M163.61242550121924,626.765361529777 L162.8204986965777,445.249357455982 M636.4947913846952,353.9286734904831 L670.344156448281,376.8783243453283 M670.344156448281,376.8783243453283 L697.5751995018513,402.62705579232295 M697.5751995018513,402.62705579232295 L717.5132729493469,430.54553807147806 M717.5132729493469,430.54553807147806 L729.6611474268243,459.9499932320682 M729.6611474268243,459.9499932320682 L733.7115562131114,490.1188168677419 M733.7115562131114,490.1188168677419 L729.5559085054856,520.3099783201586 M729.5559085054856,520.3099783201586 L717.2876264525762,549.7792603374846 M717.2876264525762,549.7792603374846 L697.2006761726134,577.7987043007012 M697.2006761726134,577.7987043007012 L669.7832562479315,603.674670278229 M669.7832562479315,603.674670278229 L635.7063913081972,626.765361529777 M635.7063913081972,626.765361529777 L595.807754621383,646.4969940846164 M595.807754621383,646.4969940846164 L551.0711760084571,662.3785700554025 M551.0711760084571,662.3785700554025 L502.602343528015,674.0143101057628 M502.602343528015,674.0143101057628 L451.60112001750116,681.1140183528083 M451.60112001750116,681.1140183528083 L399.33152043751,683.5004315057427 M399.33152043751,683.5004315057427 L347.089504478414,681.11400092502 M347.089504478414,681.11400092502 L296.17037332010943,674.0143101057628 M296.17037332010943,674.0143101057628 L247.83604836134538,662.3785613455022 M247.83604836134538,662.3785613455022 L203.28298509650384,646.4970245574194 M203.28298509650384,646.4970245574194 L163.61242550121924,626.765361529777 M636.2325771818118,172.71551306825086 L670.1196066760685,195.63961181369308 M670.1196066760685,195.63961181369308 L697.3809479679028,221.35969180614904 M697.3809479679028,221.35969180614904 L717.3411982567297,249.24712876743286 M717.3411982567297,249.24712876743286 L729.5025679888782,278.61890925999205 M729.5025679888782,278.61890925999205 L733.5574400827122,308.75423342747223 M733.5574400827122,308.75423342747223 L729.3970939828383,338.9118955282688 M729.3970939828383,338.9118955282688 L717.115047601027,368.34850321594985 M717.115047601027,368.34850321594985 L697.0055878845521,396.3369023982011 M697.0055878845521,396.3369023982011 L669.5574533370682,422.18421758118495 M669.5574533370682,422.18421758118495 L635.4424157066501,445.249357455982 M635.4424157066501,445.249357455982 L595.4990850295345,464.9591672094605 M595.4990850295345,464.9591672094605 L550.7123947934972,480.823186201044 M550.7123947934972,480.823186201044 L502.18927621518225,492.44606739482106 M502.18927621518225,492.44606739482106 L451.1309432057411,499.53793145110683 M451.1309432057411,499.53793145110683 L398.80283520303726,501.92170825879134 M398.80283520303726,501.92170825879134 L346.50237259229016,499.5379140425722 M346.50237259229016,499.5379140425722 L295.5263157292363,492.44606739482106 M295.5263157292363,492.44606739482106 L247.13800582130594,480.8231775007707 M247.13800582130594,480.8231775007707 L202.53524181812034,464.95919764856933 M202.53524181812034,464.95919764856933 L162.8204986965777,445.249357455982 M163.61242550121924,626.765361529777 L129.80243309053446,603.6746920217078 M129.80243309053446,603.6746920217078 L102.6841699529748,577.7986956088205 M102.6841699529748,577.7986956088205 L82.92106911719725,549.7792603374846 M82.92106911719725,549.7792603374846 L70.99337982873101,520.3099609608716 M70.99337982873101,520.3099609608716 L67.18669842101895,490.11881686774177 M67.18669842101895,490.11881686774177 L71.58581531438847,459.9500105656773 M71.58581531438847,459.9500105656773 L84.07356340474996,430.5455207503712 M84.07356340474996,430.5455207503712 L104.33434929538475,402.62704713770256 M104.33434929538475,402.62704713770256 L131.8630182203459,376.8783113716031 M131.8630182203459,376.8783113716031 L165.97762573071324,353.92867349048305 M165.97762573071324,353.92867349048305 L205.83689096864762,334.3380598106934 M205.83689096864762,334.3380598106934 L250.46075078001675,318.5837147820041 M250.46075078001675,318.5837147820041 L298.7545805732292,307.0489458332997 M298.7545805732292,307.0489458332997 L349.53558793498996,300.01409982512786 M349.53558793498996,300.01409982512786 L401.5614588384254,297.650007353101 M401.5614588384254,297.650007353101 L453.5600043165901,300.01408255946615 M453.5600043165901,300.01408255946615 L504.25969879416414,307.04896310194727 M504.25969879416414,307.04896310194727 L552.4202182178072,318.58372341877623 M552.4202182178072,318.58372341877623 L596.8619729700333,334.33806413075166 M596.8619729700333,334.33806413075166 L636.4947913846952,353.9286734904831 M162.8204986965777,445.249357455982 L128.97293076634583,422.18423930059623 M128.97293076634583,422.18423930059623 L101.82462211367476,396.33689371594744 M101.82462211367476,396.33689371594744 L82.03973603686654,368.34850321594985 M82.03973603686654,368.34850321594985 L70.09904380379373,338.9118781882359 M70.09904380379373,338.9118781882359 L66.28844378688859,308.75423342747223 M66.28844378688859,308.75423342747223 L70.69280290511927,278.61892657434663 M70.69280290511927,278.61892657434663 L83.1948051558436,249.24711146558047 M83.1948051558436,249.24711146558047 L103.47848820369666,221.35968316115594 M103.47848820369666,221.35968316115594 L131.03811947579788,195.63959885440875 M131.03811947579788,195.63959885440875 L165.19098312206293,172.71551306825074 M165.19098312206293,172.71551306825074 L205.09485344476346,153.14672294708765 M205.09485344476346,153.14672294708765 L249.76857222742927,137.40993556383978 M249.76857222742927,137.40993556383978 L298.11629648449707,125.88802600076463 M298.11629648449707,125.88802600076463 L348.95392099763643,118.8610244846609 M348.95392099763643,118.8610244846609 L401.0377556196227,116.49956849425723 M401.0377556196227,116.49956849425723 L453.0942039110331,118.86100723825348 M453.0942039110331,118.86100723825348 L503.8503342922093,125.88804325015786 M503.8503342922093,125.88804325015786 L552.0644509780295,137.40994419098462 M552.0644509780295,137.40994419098462 L596.5556586800913,153.14672726233226 M596.5556586800913,153.14672726233226 L636.2325771818118,172.71551306825086" stroke="black"  stroke-width="4"  fill="red"/></svg>