<svg viewBox="0 0 800 800" xmlns="http://www.w3.org/2000/svg"><path d="M406.8344189747227,401.7335728680881 L406.83461323014416,401.5095113564321 M407.7041528796173,401.4091600406689 L407.7043664325597,401.18514897910813 M406.8344189747227,401.7335728680881 L407.7041528796173,401.4091600406689 M406.83461323014416,401.5095113564321 L407.7043664325597,401.18514897910813 M409.50342539379034,400.5671431926812 L409.5036788027051,400.3432630921989 M407.7041528796173,401.4091600406689 L408.6908972949137,401.00835711989413 M408.6908972949137,401.00835711989413 L409.50342539379034,400.5671431926812 M407.7043664325597,401.18514897910813 L408.69113272340655,400.78440839313686 M408.69113272340655,400.78440839313686 L409.5036788027051,400.3432630921989 M410.07704036828824,399.66206480464456 L410.07730633764027,399.4383255012753 M409.50342539379034,400.5671431926812 L409.85932615485063,400.30935130024943 M409.85932615485063,400.30935130024943 L410.0299897784578,400.04000495550434 M410.0299897784578,400.04000495550434 L410.07704036828824,399.66206480464456 M409.5036788027051,400.3432630921989 L409.8595874221106,400.0855112998172 M409.8595874221106,400.0855112998172 L410.03025478216966,399.81620685494653 M410.03025478216966,399.81620685494653 L410.07730633764027,399.4383255012753 M409.75038802193944,398.96502766180777 L409.7506465915763,398.7413968116483 M410.07704036828824,399.66206480464456 L410.01508612607137,399.30211672962537 M410.01508612607137,399.30211672962537 L409.75038802193944,398.96502766180777 M410.07730633764027,399.4383255012753 L410.01535064345967,399.0784334290557 M410.01535064345967,399.0784334290557 L409.7506465915763,398.7413968116483 M408.2236028055784,398.0973521152161 L408.22382732225435,397.87385629215174 M409.75038802193944,398.96502766180777 L409.29922131127296,398.5864920527915 M409.29922131127296,398.5864920527915 L408.9017225083058,398.38350639093676 M408.9017225083058,398.38350639093676 L408.2236028055784,398.0973521152161 M409.7506465915763,398.7413968116483 L409.29946978921726,398.3629201068254 M409.29946978921726,398.3629201068254 L408.90196212487507,398.15996603379614 M408.90196212487507,398.15996603379614 L408.22382732225435,397.87385629215174 M405.6448947726032,397.0791194611833 L405.6450619402894,396.8557821287039 M408.2236028055784,398.0973521152161 L405.6448947726032,397.0791194611833 M408.22382732225435,397.87385629215174 L405.6450619402894,396.8557821287039 M404.4383041515584,396.77752063576435 L404.4384445367451,396.55423025495924 M405.6448947726032,397.0791194611833 L405.11219344714675,396.90789335343277 M405.11219344714675,396.90789335343277 L404.7762285308286,396.83105833802637 M404.7762285308286,396.83105833802637 L404.4383041515584,396.77752063576435 M405.6450619402894,396.8557821287039 L405.1123487842528,396.684582676341 M405.1123487842528,396.684582676341 L404.7763764119308,396.6077596224559 M404.7763764119308,396.6077596224559 L404.4384445367451,396.55423025495924 M403.69642730955604,396.59084504222716 L403.6965512336772,396.36758372392535 M404.4383041515584,396.77752063576435 L404.2171563524933,396.74445041947246 M404.2171563524933,396.74445041947246 L404.0074706921997,396.6916843589156 M404.0074706921997,396.6916843589156 L403.69642730955604,396.59084504222716 M404.4384445367451,396.55423025495924 L404.2172918326873,396.521165187099 M404.2172918326873,396.521165187099 L404.0076015196353,396.4684073413387 M404.0076015196353,396.4684073413387 L403.6965512336772,396.36758372392535 M402.4215589071108,396.2300808443653 L402.4216545523065,396.0068756949563 M403.69642730955604,396.59084504222716 L402.4215589071108,396.2300808443653 M403.6965512336772,396.36758372392535 L402.4216545523065,396.0068756949563 M401.1071430934404,395.88207390039116 L401.10720960074696,395.6589229379979 M402.4215589071108,396.2300808443653 L401.1071430934404,395.88207390039116 M402.4216545523065,396.0068756949563 L401.10720960074696,395.6589229379979 M398.91392587252426,395.5097305780208 L398.9139437996591,395.28663759671457 M401.1071430934404,395.88207390039116 L400.3244470089867,395.69393583922465 M400.3244470089867,395.69393583922465 L399.54365462222216,395.56138282601194 M399.54365462222216,395.56138282601194 L399.2005877602929,395.52386165182963 M399.2005877602929,395.52386165182963 L398.91392587252426,395.5097305780208 M401.10720960074696,395.6589229379979 L400.32449617395423,395.4708141729698 M400.32449617395423,395.4708141729698 L399.543686493612,395.3382818011551 M399.543686493612,395.3382818011551 L399.20061203473585,395.3007664699513 M399.20061203473585,395.3007664699513 L398.9139437996591,395.28663759671457 M397.8213248536617,395.7238269475108 L397.821318588243,395.5007006266436 M398.91392587252426,395.5097305780208 L398.73412523472734,395.5139359266707 M398.73412523472734,395.5139359266707 L398.56070876431505,395.52930051368685 M398.56070876431505,395.52930051368685 L398.3881991457462,395.55689759466827 M398.3881991457462,395.55689759466827 L398.1191509766875,395.6235781263893 M398.1191509766875,395.6235781263893 L397.8213248536617,395.7238269475108 M398.9139437996591,395.28663759671457 L398.73413918090927,395.29084229048254 M398.73413918090927,395.29084229048254 L398.56071887096124,395.3062044848396 M398.56071887096124,395.3062044848396 L398.3882054329033,395.3337972682707 M398.3882054329033,395.3337972682707 L398.11915130659213,395.4004674162892 M398.11915130659213,395.4004674162892 L397.821318588243,395.5007006266436 M397.20611858268785,396.21781915493335 L397.20609868571455,395.99461591467895 M397.8213248536617,395.7238269475108 L397.3851048203894,395.91367908057896 M397.3851048203894,395.91367908057896 L397.2158210306006,396.0337458944393 M397.2158210306006,396.0337458944393 L397.1681437626208,396.11608779358073 M397.1681437626208,396.11608779358073 L397.17295148441787,396.16781610918997 M397.17295148441787,396.16781610918997 L397.20611858268785,396.21781915493335 M397.821318588243,395.5007006266436 L397.3850888924822,395.69052319687063 M397.3850888924822,395.69052319687063 L397.2158013514591,395.8105713151735 M397.2158013514591,395.8105713151735 L397.16812302604626,395.89290039318354 M397.16812302604626,395.89290039318354 L397.1729308534931,395.94462065450386 M397.1729308534931,395.94462065450386 L397.20609868571455,395.99461591467895 M397.6394303940265,396.47563458796526 L397.6394200943921,396.25239120676355 M397.20611858268785,396.21781915493335 L397.6394303940265,396.47563458796526 M397.20609868571455,395.99461591467895 L397.6394200943921,396.25239120676355 M398.0241951136821,396.68270757201435 L398.02419333946347,396.45943195198345 M397.6394303940265,396.47563458796526 L398.0241951136821,396.68270757201435 M397.6394200943921,396.25239120676355 L398.02419333946347,396.45943195198345 M398.666206810383,396.86864780741365 L398.66621926620405,396.64534323996384 M398.0241951136821,396.68270757201435 L398.666206810383,396.86864780741365 M398.02419333946347,396.45943195198345 L398.66621926620405,396.64534323996384 M400.7156668986819,397.54421296777156 L400.7157248122896,397.32080323772664 M398.666206810383,396.86864780741365 L400.7156668986819,397.54421296777156 M398.66621926620405,396.64534323996384 L400.7157248122896,397.32080323772664 M400.32339098717154,397.5006731593283 L400.3234401995308,397.27727020646995 M400.7156668986819,397.54421296777156 L400.727421286879,397.55987006226553 M400.727421286879,397.55987006226553 L400.6765399906254,397.5586461983389 M400.6765399906254,397.5586461983389 L400.32339098717154,397.5006731593283 M400.7157248122896,397.32080323772664 L400.7274794618899,397.33645789513275 M400.7274794618899,397.33645789513275 L400.67659703716697,397.3352342217049 M400.67659703716697,397.3352342217049 L400.3234401995308,397.27727020646995 M399.28015317600006,397.350734415555 L399.28017925005753,397.1273548019159 M400.32339098717154,397.5006731593283 L399.28015317600006,397.350734415555 M400.3234401995308,397.27727020646995 L399.28017925005753,397.1273548019159 M398.69441498502533,397.28284813552443 L398.6944280704007,397.0594790892135 M399.28015317600006,397.350734415555 L398.69441498502533,397.28284813552443 M399.28017925005753,397.1273548019159 L398.6944280704007,397.0594790892135 M398.09109911842603,397.0968080517414 L398.0910988268307,396.8734679656741 M398.69441498502533,397.28284813552443 L398.09109911842603,397.0968080517414 M398.6944280704007,397.0594790892135 L398.0910988268307,396.8734679656741 M396.8187011833844,396.8666553119825 L396.8186726889628,396.64335105472054 M398.09109911842603,397.0968080517414 L397.43528441535534,396.91605657196783 M397.43528441535534,396.91605657196783 L397.22196679414895,396.8819459587045 M397.22196679414895,396.8819459587045 L397.0332069859644,396.86867726889614 M397.0332069859644,396.86867726889614 L396.8187011833844,396.8666553119825 M398.0910988268307,396.8734679656741 L397.4352695870047,396.69274462405485 M397.4352695870047,396.69274462405485 L397.22194723792836,396.6586393210278 M397.22194723792836,396.6586393210278 L397.03318324605596,396.64537269685985 M397.03318324605596,396.64537269685985 L396.8186726889628,396.64335105472054 M395.4544098040166,397.1948051519683 L395.45435105453436,396.97144981086467 M396.8187011833844,396.8666553119825 L396.55126264218495,396.879782355625 M396.55126264218495,396.879782355625 L396.28593792157744,396.9128792775992 M396.28593792157744,396.9128792775992 L396.03315436382127,396.96343772519674 M396.03315436382127,396.96343772519674 L395.8033457740733,397.0289500109121 M395.8033457740733,397.0289500109121 L395.6069496204418,397.10690839832586 M395.6069496204418,397.10690839832586 L395.4544098040166,397.1948051519683 M396.8186726889628,396.64335105472054 L396.5512282195905,396.65647605477284 M396.5512282195905,396.65647605477284 L396.28589761689926,396.68956782431593 M396.28589761689926,396.68956782431593 L396.03310845410516,396.7401184011983 M396.03310845410516,396.7401184011983 L395.80329476756384,396.80562048838533 M395.80329476756384,396.80562048838533 L395.6068942567845,396.8835667399396 M395.6068942567845,396.8835667399396 L395.45435105453436,396.97144981086467 M395.1644973301603,397.358984242849 L395.1644321445277,397.13560334503467 M395.4544098040166,397.1948051519683 L395.1644973301603,397.358984242849 M395.45435105453436,396.97144981086467 L395.1644321445277,397.13560334503467 M395.1121690854663,397.6522095137518 L395.1121027240283,397.4287829737991 M395.1644973301603,397.358984242849 L395.0818977925838,397.403759241081 M395.0818977925838,397.403759241081 L395.02851437121507,397.45201870165374 M395.02851437121507,397.45201870165374 L395.0045984162424,397.5023784673353 M395.0045984162424,397.5023784673353 L395.01040118403495,397.55345363805407 M395.01040118403495,397.55345363805407 L395.0461741112558,397.6038591375761 M395.0461741112558,397.6038591375761 L395.1121690854663,397.6522095137518 M395.1644321445277,397.13560334503467 L395.0818307730141,397.18037137359374 M395.0818307730141,397.18037137359374 L395.02844616526784,397.22862332218153 M395.02844616526784,397.22862332218153 L395.00452967719207,397.27897524903614 M395.00452967719207,397.27897524903614 L395.01033257087937,397.33004246966175 M395.01033257087937,397.33004246966175 L395.04610628872496,397.3804401234184 M395.04610628872496,397.3804401234184 L395.1121027240283,397.4287829737991 M395.85535173497595,397.95257474666266 L395.8553018446679,397.72910145634376 M395.1121690854663,397.6522095137518 L395.85535173497595,397.95257474666266 M395.1121027240283,397.4287829737991 L395.8553018446679,397.72910145634376 M396.6796362159256,398.2776864507894 L396.67960460362434,398.05416256202716 M395.85535173497595,397.95257474666266 L396.6796362159256,398.2776864507894 M395.8553018446679,397.72910145634376 L396.67960460362434,398.05416256202716 M397.4522773718086,398.55922750299567 L397.45226290121263,398.33565979988066 M396.6796362159256,398.2776864507894 L397.4522773718086,398.55922750299567 M396.67960460362434,398.05416256202716 L397.45226290121263,398.33565979988066 M398.0361018448577,398.75383233463344 L398.0361003320231,398.53023434810416 M397.4522773718086,398.55922750299567 L398.0361018448577,398.75383233463344 M397.45226290121263,398.33565979988066 L398.0361003320231,398.53023434810416 M397.9846110122878,398.85286495385105 L397.9846083562272,398.6292515568825 M398.0361018448577,398.75383233463344 L397.9846110122878,398.85286495385105 M398.0361003320231,398.53023434810416 L397.9846083562272,398.6292515568825 M397.93311186925456,398.95191310558226 L397.9331080696033,398.7282842961035 M397.9846110122878,398.85286495385105 L397.93311186925456,398.95191310558226 M397.9846083562272,398.6292515568825 L397.9331080696033,398.7282842961035 M397.48851517740377,399.069166794006 L397.4885015055638,398.8455197395697 M397.93311186925456,398.95191310558226 L397.48851517740377,399.069166794006 M397.9331080696033,398.7282842961035 L397.4885015055638,398.8455197395697 M396.9344738334885,399.20334462459 L396.934447856932,398.97967669235425 M397.48851517740377,399.069166794006 L396.9344738334885,399.20334462459 M397.4885015055638,398.8455197395697 L396.934447856932,398.97967669235425 M396.3302097039681,399.17170020278263 L396.3301703098777,398.94803719429774 M396.9344738334885,399.20334462459 L396.9027546548727,399.206021701101 M396.9027546548727,399.206021701101 L396.85540810084177,399.206717275647 M396.85540810084177,399.206717275647 L396.71844857184146,399.2021361217812 M396.71844857184146,399.2021361217812 L396.3302097039681,399.17170020278263 M396.934447856932,398.97967669235425 L396.902727973891,398.982353352324 M396.902727973891,398.982353352324 L396.85538036844645,398.9830488186418 M396.85538036844645,398.9830488186418 L396.7184177981734,398.9784683775832 M396.7184177981734,398.9784683775832 L396.3301703098777,398.94803719429774 M395.835382351412,399.1231681414004 L395.8353319712127,398.89951268438716 M396.3302097039681,399.17170020278263 L395.835382351412,399.1231681414004 M396.3301703098777,398.94803719429774 L395.8353319712127,398.89951268438716 M395.40194835244176,398.9721107690327 L395.40188835505745,398.74847881671406 M395.835382351412,399.1231681414004 L395.40194835244176,398.9721107690327 M395.8353319712127,398.89951268438716 L395.40188835505745,398.74847881671406 M394.72843399412017,398.8014907238691 L394.72835905333017,398.5778853211874 M395.40194835244176,398.9721107690327 L395.0288659216499,398.8492033975482 M395.0288659216499,398.8492033975482 L394.9127551759486,398.8226290265773 M394.9127551759486,398.8226290265773 L394.8278445992489,398.81070207532906 M394.8278445992489,398.81070207532906 L394.72843399412017,398.8014907238691 M395.40188835505745,398.74847881671406 L395.02879764764697,398.62559057034713 M395.02879764764697,398.62559057034713 L394.91268432576817,398.5990203345765 M394.91268432576817,398.5990203345765 L394.82777186477165,398.5870952392724 M394.82777186477165,398.5870952392724 L394.72835905333017,398.5778853211874 M394.0447193639389,398.6390467169342 L394.0446292568064,398.41546659259734 M394.72843399412017,398.8014907238691 L394.6257819994088,398.79162407628604 M394.6257819994088,398.79162407628604 L394.54384377516084,398.77984730791064 M394.54384377516084,398.77984730791064 L394.3496225492811,398.73369956451216 M394.3496225492811,398.73369956451216 L394.0447193639389,398.6390467169342 M394.72835905333017,398.5778853211874 L394.62570478042267,398.5680202089531 M394.62570478042267,398.5680202089531 L394.5437647379582,398.55624527316473 M394.5437647379582,398.55624527316473 L394.3495392036368,398.5101047108802 M394.3495392036368,398.5101047108802 L394.0446292568064,398.41546659259734 M392.9038294748452,398.4147658832899 L392.9037140646211,398.19122066142194 M394.0447193639389,398.6390467169342 L393.4635061968392,398.4777654931478 M393.4635061968392,398.4777654931478 L393.2257740656071,398.4357360107026 M393.2257740656071,398.4357360107026 L393.06143669997545,398.4193003724274 M393.06143669997545,398.4193003724274 L392.9038294748452,398.4147658832899 M394.0446292568064,398.41546659259734 L393.4634032020626,398.2542104671334 M393.4634032020626,398.2542104671334 L393.22566579832255,398.21218752539886 M393.22566579832255,398.21218752539886 L393.0613247870412,398.19575444488714 M393.0613247870412,398.19575444488714 L392.9037140646211,398.19122066142194 M392.17660761331933,398.5142016310672 L392.17647605384144,398.29064093483987 M392.9038294748452,398.4147658832899 L392.80136689181916,398.4184794171144 M392.80136689181916,398.4184794171144 L392.67998885284874,398.42810734176976 M392.67998885284874,398.42810734176976 L392.43222259513374,398.45951763426683 M392.43222259513374,398.45951763426683 L392.2857395787731,398.48612367863063 M392.2857395787731,398.48612367863063 L392.17660761331933,398.5142016310672 M392.9037140646211,398.19122066142194 L392.80124920734966,398.1949336173338 M392.80124920734966,398.1949336173338 L392.67986847377097,398.2045600436613 M392.67986847377097,398.2045600436613 L392.43209671430753,398.2359654480124 M392.43209671430753,398.2359654480124 L392.2856104442785,398.2625673519064 M392.2856104442785,398.2625673519064 L392.17647605384144,398.29064093483987 M391.84869772370416,398.8203587223711 L391.84855885271236,398.59675038365026 M392.17660761331933,398.5142016310672 L392.0644529870584,398.5630928442488 M392.0644529870584,398.5630928442488 L391.9697014078282,398.6269815034555 M391.9697014078282,398.6269815034555 L391.88325086306725,398.722036293462 M391.88325086306725,398.722036293462 L391.84869772370416,398.8203587223711 M392.17647605384144,398.29064093483987 L392.06431893318285,398.339524539616 M392.06431893318285,398.339524539616 L391.96956524401446,398.40340325665585 M391.96956524401446,398.40340325665585 L391.8831127699399,398.4984432547795 M391.8831127699399,398.4984432547795 L391.84855885271236,398.59675038365026 M392.1146380334824,399.08415780847065 L392.1145050383747,398.86050842143135 M391.84869772370416,398.8203587223711 L391.8596829439119,398.9064915543387 M391.8596829439119,398.9064915543387 L391.9043763876088,398.95824951780196 M391.9043763876088,398.95824951780196 L391.9842634217981,399.0113500583062 M391.9842634217981,399.0113500583062 L392.1146380334824,399.08415780847065 M391.84855885271236,398.59675038365026 L391.8595443072932,398.6828698126936 M391.8595443072932,398.6828698126936 L391.90423873757135,398.73461972234986 M391.90423873757135,398.73461972234986 L391.98412753968097,398.78771200023317 M391.98412753968097,398.78771200023317 L392.1145050383747,398.86050842143135 M393.4320163274441,399.5503606673954 L393.4319125453295,399.32663874311123 M392.1146380334824,399.08415780847065 L392.4770371491155,399.25141092225 M392.4770371491155,399.25141092225 L392.9253970038089,399.41008350729123 M392.9253970038089,399.41008350729123 L393.4320163274441,399.5503606673954 M392.1145050383747,398.86050842143135 L392.4769121842072,399.02773551115 M392.4769121842072,399.02773551115 L392.9252819812288,399.18638340814675 M392.9252819812288,399.18638340814675 L393.4319125453295,399.32663874311123 M393.90010699664623,399.7140697129028 L393.90001359985337,399.4903223186878 M393.4320163274441,399.5503606673954 L393.7057769798896,399.6238108557704 M393.7057769798896,399.6238108557704 L393.80968814428155,399.6643327501761 M393.80968814428155,399.6643327501761 L393.90010699664623,399.7140697129028 M393.4319125453295,399.32663874311123 L393.70567927298475,399.40007750395415 M393.70567927298475,399.40007750395415 L393.8095927425678,399.4405930939611 M393.8095927425678,399.4405930939611 L393.90001359985337,399.4903223186878 M394.2383372517543,399.8821916649751 L394.2382513574105,399.6584181152517 M393.90010699664623,399.7140697129028 L394.2383372517543,399.8821916649751 M393.90001359985337,399.4903223186878 L394.2382513574105,399.6584181152517 M394.44237995503664,399.9676711538556 L394.4422985886642,399.74388430607604 M394.2383372517543,399.8821916649751 L394.44237995503664,399.9676711538556 M394.2382513574105,399.6584181152517 L394.4422985886642,399.74388430607604 M394.1056062372129,399.9195467415796 L394.10551739116505,399.69576738049 M394.44237995503664,399.9676711538556 L394.1056062372129,399.9195467415796 M394.4422985886642,399.74388430607604 L394.10551739116505,399.69576738049 M392.4377410404754,399.41967560803613 L392.43761518607766,399.1959740164745 M394.1056062372129,399.9195467415796 L393.8263762458423,399.87370014296005 M393.8263762458423,399.87370014296005 L393.4177094054694,399.7512152317279 M393.4177094054694,399.7512152317279 L392.4377410404754,399.41967560803613 M394.10551739116505,399.69576738049 L393.82628119903626,399.649927914278 M393.82628119903626,399.649927914278 L393.4176052889453,399.52746205852714 M393.4176052889453,399.52746205852714 L392.43761518607766,399.1959740164745 M391.3963714670066,399.2022474962213 L391.3962225093194,398.978579734694 M392.4377410404754,399.41967560803613 L391.90574099811414,399.2593291504835 M391.90574099811414,399.2593291504835 L391.7035036393285,399.22203253184927 M391.7035036393285,399.22203253184927 L391.55537212626325,399.20773242457796 M391.55537212626325,399.20773242457796 L391.3963714670066,399.2022474962213 M392.43761518607766,399.1959740164745 L391.9056033454296,399.0356525073564 M391.9056033454296,399.0356525073564 L391.70336149969665,398.9983616918633 M391.70336149969665,398.9983616918633 L391.55522669876956,398.98406380962007 M391.55522669876956,398.98406380962007 L391.3962225093194,398.978579734694 M390.5942717237923,399.2986760892995 L390.5941049415973,399.0749933240665 M391.3963714670066,399.2022474962213 L391.1569970037371,399.2105107387985 M391.1569970037371,399.2105107387985 L390.90330514428865,399.2380775557142 M390.90330514428865,399.2380775557142 L390.7409354878059,399.26541251852905 M390.7409354878059,399.26541251852905 L390.5942717237923,399.2986760892995 M391.3962225093194,398.978579734694 L391.1568427293985,398.98684169154774 M391.1568427293985,398.98684169154774 L390.90314523283337,399.0144042192081 M390.90314523283337,399.0144042192081 L390.7407719670541,399.0417349288693 M390.7407719670541,399.0417349288693 L390.5941049415973,399.0749933240665 M389.92497701601815,399.7188049892767 L389.92479530941677,399.4950568583592 M390.5942717237923,399.2986760892995 L390.42568754008823,399.3602991872704 M390.42568754008823,399.3602991872704 L390.1720136157157,399.4940206390496 M390.1720136157157,399.4940206390496 L389.9758752724057,399.63505803568836 M389.9758752724057,399.63505803568836 L389.92538046017626,399.69754026790156 M389.92538046017626,399.69754026790156 L389.9228754142549,399.7091503037094 M389.9228754142549,399.7091503037094 L389.92497701601815,399.7188049892767 M390.5941049415973,399.0749933240665 L390.4255170056105,399.1366068340281 M390.4255170056105,399.1366068340281 L390.1718374286287,399.2703074803926 M390.1718374286287,399.2703074803926 L389.9756947085506,399.4113229340294 M389.9756947085506,399.4113229340294 L389.9251987656077,399.47379544530236 M389.9251987656077,399.47379544530236 L389.9226936623598,399.48540367484463 M389.9226936623598,399.48540367484463 L389.92479530941677,399.4950568583592 M390.77679392501364,400.0040243044981 L390.7766311050487,399.780231801332 M389.92497701601815,399.7188049892767 L389.9417877740431,399.7357196430687 M389.9417877740431,399.7357196430687 L389.9896869268552,399.7637654443884 M389.9896869268552,399.7637654443884 L390.3522188874307,399.89899999657786 M390.3522188874307,399.89899999657786 L390.5833035174889,399.96347916447064 M390.5833035174889,399.96347916447064 L390.77679392501364,400.0040243044981 M389.92479530941677,399.4950568583592 L389.9416064384637,399.5119688806181 M389.9416064384637,399.5119688806181 L389.98950665137585,399.54001031867506 M389.98950665137585,399.54001031867506 L390.3520466475578,399.67522383195956 M390.3520466475578,399.67522383195956 L390.5831364034486,399.73969296883354 M390.5831364034486,399.73969296883354 L390.7766311050487,399.780231801332 M392.4342279361292,400.5581869233869 L392.4341018897498,400.33430821603116 M390.77679392501364,400.0040243044981 L391.60620022255426,400.2419538083333 M391.60620022255426,400.2419538083333 L392.4342279361292,400.5581869233869 M390.7766311050487,399.780231801332 L391.60605580513936,400.018124292104 M391.60605580513936,400.018124292104 L392.4341018897498,400.33430821603116 M392.6487323427081,400.7789596949901 L392.64861104356595,400.5550466477783 M392.4342279361292,400.5581869233869 L392.6805990110401,400.69344886466155 M392.6805990110401,400.69344886466155 L392.69842973509793,400.7117996621063 M392.69842973509793,400.7117996621063 L392.7023566855724,400.727672006028 M392.7023566855724,400.727672006028 L392.6975777037147,400.738619058461 M392.6975777037147,400.738619058461 L392.6861191590094,400.7508890605591 M392.6861191590094,400.7508890605591 L392.6487323427081,400.7789596949901 M392.4341018897498,400.33430821603116 L392.6804784286149,400.4695491179329 M392.6804784286149,400.4695491179329 L392.69830954734664,400.4878970610452 M392.69830954734664,400.4878970610452 L392.70223658361544,400.5037669361495 M392.70223658361544,400.5037669361495 L392.69745749446054,400.5147122858603 M392.69745749446054,400.5147122858603 L392.68599869381814,400.52698037946743 M392.68599869381814,400.52698037946743 L392.64861104356595,400.5550466477783 M392.73760271079107,401.1503804496951 L392.7374833524239,400.9264096341359 M392.6487323427081,400.7789596949901 L392.6049782343433,400.8260280498092 M392.6049782343433,400.8260280498092 L392.5859519256664,400.8844738885668 M392.5859519256664,400.8844738885668 L392.5973619570339,400.9730451866899 M392.5973619570339,400.9730451866899 L392.64868349123236,401.0649086264771 M392.64868349123236,401.0649086264771 L392.73760271079107,401.1503804496951 M392.64861104356595,400.5550466477783 L392.60485595779414,400.6021076816249 M392.60485595779414,400.6021076816249 L392.5858292203732,400.66054442987445 M392.5858292203732,400.66054442987445 L392.5972394968448,400.74910195208656 M392.5972394968448,400.74910195208656 L392.6485621634656,400.8409511042132 M392.6485621634656,400.8409511042132 L392.7374833524239,400.9264096341359 M393.22880917996696,401.40413684264615 L393.22870072456567,401.1801265622822 M392.73760271079107,401.1503804496951 L393.22880917996696,401.40413684264615 M392.7374833524239,400.9264096341359 L393.22870072456567,401.1801265622822 M394.29828641773935,401.90268243650297 L394.29820171962075,401.6785946277488 M393.22880917996696,401.40413684264615 L394.29828641773935,401.90268243650297 M393.22870072456567,401.1801265622822 L394.29820171962075,401.6785946277488 M393.62627089233143,401.9163523607197 L393.6261712380715,401.69226242629117 M394.29828641773935,401.90268243650297 L394.10085170224795,401.9099262930455 M394.10085170224795,401.9099262930455 L393.62627089233143,401.9163523607197 M394.29820171962075,401.6785946277488 L394.10076260989723,401.68583735787024 M394.10076260989723,401.68583735787024 L393.6261712380715,401.69226242629117 M392.5413451695674,401.88413515731963 L392.5412213742284,401.66005023267957 M393.62627089233143,401.9163523607197 L393.0174293659484,401.91147713567216 M393.0174293659484,401.91147713567216 L392.5413451695674,401.88413515731963 M393.6261712380715,401.69226242629117 L393.0173161627953,401.68738795934075 M393.0173161627953,401.68738795934075 L392.5412213742284,401.66005023267957 M390.79034982319416,402.1773526362657 L390.79018702384974,401.9532221175368 M392.5413451695674,401.88413515731963 L391.900927230455,401.8454512515901 M391.900927230455,401.8454512515901 L391.6483214852306,401.8499206722663 M391.6483214852306,401.8499206722663 L391.48346706457806,401.8645219782845 M391.48346706457806,401.8645219782845 L391.32398952514114,401.892085106891 M391.32398952514114,401.892085106891 L391.17916106285736,401.93365948945245 M391.17916106285736,401.93365948945245 L391.0502420047817,401.9892448210434 M391.0502420047817,401.9892448210434 L390.91482018845613,402.0728144951065 M390.91482018845613,402.0728144951065 L390.79034982319416,402.1773526362657 M392.5412213742284,401.66005023267957 L391.90078918767506,401.6213723423617 M391.90078918767506,401.6213723423617 L391.648177820698,401.625841068033 M391.648177820698,401.625841068033 L391.48331972981555,401.64044010351984 M391.48331972981555,401.64044010351984 L391.3238386381674,401.667998946027 M391.3238386381674,401.667998946027 L391.1790069478099,401.7095668637733 M391.1790069478099,401.7095668637733 L391.05008501377216,401.7651435519423 M391.05008501377216,401.7651435519423 L390.914660172951,401.8487002312723 M390.914660172951,401.8487002312723 L390.79018702384974,401.9532221175368 M390.72087826873667,402.4947167623357 L390.72071388166853,402.27053689823566 M390.79034982319416,402.1773526362657 L390.67037486656415,402.32633659118864 M390.67037486656415,402.32633659118864 L390.6698951747702,402.40335197205656 M390.6698951747702,402.40335197205656 L390.72087826873667,402.4947167623357 M390.79018702384974,401.9532221175368 L390.6702093771596,402.10218290724197 M390.6702093771596,402.10218290724197 L390.6697296645798,402.1791863134493 M390.6697296645798,402.1791863134493 L390.72071388166853,402.27053689823566 M390.7954821186995,402.6270411534873 L390.79531937557573,402.40284071597534 M390.72087826873667,402.4947167623357 L390.7954821186995,402.6270411534873 M390.72071388166853,402.27053689823566 L390.79531937557573,402.40284071597534 M391.2507246744242,402.9351013391758 L391.2505720308377,402.7108530077556 M390.7954821186995,402.6270411534873 L390.87812522476935,402.72150727376174 M390.87812522476935,402.72150727376174 L391.03693598151153,402.8289706616159 M391.03693598151153,402.8289706616159 L391.2507246744242,402.9351013391758 M390.79531937557573,402.40284071597534 L390.87796430979523,402.49729214930994 M390.87796430979523,402.49729214930994 L391.03677858960714,402.60473882988197 M391.03677858960714,402.60473882988197 L391.2505720308377,402.7108530077556 M391.95889218837726,403.062527479669 L391.95875530346217,402.83825933837255 M391.2507246744242,402.9351013391758 L391.41644804967206,402.9918636190249 M391.41644804967206,402.9918636190249 L391.5937371309894,403.0282693058207 M391.5937371309894,403.0282693058207 L391.7615300706838,403.04866920173754 M391.7615300706838,403.04866920173754 L391.95889218837726,403.062527479669 M391.2505720308377,402.7108530077556 L391.41629909041933,402.76760646317706 M391.41629909041933,402.76760646317706 L391.5935921163598,402.8040064902996 M391.5935921163598,402.8040064902996 L391.76138879117497,402.82440321484387 M391.76138879117497,402.82440321484387 L391.95875530346217,402.83825933837255 M392.2191152096334,403.0905963361066 L392.2189841181439,402.86632383125686 M391.95889218837726,403.062527479669 L392.1211578587363,403.0751516612434 M392.1211578587363,403.0751516612434 L392.18344507333063,403.0831383683796 M392.18344507333063,403.0831383683796 L392.2191152096334,403.0905963361066 M391.95875530346217,402.83825933837255 L392.121024586877,402.8508815574022 M392.121024586877,402.8508815574022 L392.1833131880679,402.8588670229345 M392.1833131880679,402.8588670229345 L392.2189841181439,402.86632383125686 M393.80030414993416,403.2734015182609 L393.80020826555585,403.04910059540055 M392.2191152096334,403.0905963361066 L392.89713882345694,403.17636415766765 M392.89713882345694,403.17636415766765 L393.80030414993416,403.2734015182609 M392.2189841181439,402.86632383125686 L392.8970228270667,402.9520783196197 M392.8970228270667,402.9520783196197 L393.80020826555585,403.04910059540055 M394.3911226221035,403.34037244108697 L394.39103989572965,403.11606110754576 M393.80030414993416,403.2734015182609 L394.3911226221035,403.34037244108697 M393.80020826555585,403.04910059540055 L394.39103989572965,403.11606110754576 M395.03413472047174,403.4026563555797 L395.0340663166587,403.17833534009867 M394.3911226221035,403.34037244108697 L395.03413472047174,403.4026563555797 M394.39103989572965,403.11606110754576 L395.0340663166587,403.17833534009867 M395.5211442777534,403.45284240584385 L395.52108672247766,403.2285135891172 M395.03413472047174,403.4026563555797 L395.2480253128993,403.41974554192876 M395.2480253128993,403.41974554192876 L395.5211442777534,403.45284240584385 M395.0340663166587,403.17833534009867 L395.24796167381805,403.1954218699835 M395.24796167381805,403.1954218699835 L395.52108672247766,403.2285135891172 M395.8364782402784,403.4973250558429 L395.83642770930567,403.2729893245184 M395.5211442777534,403.45284240584385 L395.8364782402784,403.4973250558429 M395.52108672247766,403.2285135891172 L395.83642770930567,403.2729893245184 M395.699196671317,403.6520726943114 L395.6991430748403,403.42771290881166 M395.8364782402784,403.4973250558429 L395.699196671317,403.6520726943114 M395.83642770930567,403.2729893245184 L395.6991430748403,403.42771290881166 M395.27575109470604,403.96152023314073 L395.2756880463268,403.7371123492461 M395.699196671317,403.6520726943114 L395.5242128079505,403.80681628119487 M395.5242128079505,403.80681628119487 L395.27575109470604,403.96152023314073 M395.6991430748403,403.42771290881166 L395.52415530492425,403.58243244299484 M395.52415530492425,403.58243244299484 L395.2756880463268,403.7371123492461 M394.84465286551733,404.3657689290386 L394.84458018453205,404.1412982166021 M395.27575109470604,403.96152023314073 L394.9884885323386,404.14235143021597 M394.9884885323386,404.14235143021597 L394.8972704848479,404.2444817280104 M394.8972704848479,404.2444817280104 L394.84465286551733,404.3657689290386 M395.2756880463268,403.7371123492461 L394.9884190708204,403.9179154407299 M394.9884190708204,403.9179154407299 L394.8971989839714,404.0200298654878 M394.8971989839714,404.0200298654878 L394.84458018453205,404.1412982166021 M395.5535918011657,404.7060243492365 L395.5535349124405,404.4815007585972 M394.84465286551733,404.3657689290386 L394.84480330606385,404.47009188648525 M394.84480330606385,404.47009188648525 L394.90451662493837,404.5613142702209 M394.90451662493837,404.5613142702209 L395.0015280198423,404.6285284954362 M395.0015280198423,404.6285284954362 L395.10533212383456,404.6703137925136 M395.10533212383456,404.6703137925136 L395.20328986474345,404.69456957671684 M395.20328986474345,404.69456957671684 L395.30036229242944,404.7082409405006 M395.30036229242944,404.7082409405006 L395.39374946520496,404.7133624032855 M395.39374946520496,404.7133624032855 L395.4724265534054,404.71219389880656 M395.4724265534054,404.71219389880656 L395.5535918011657,404.7060243492365 M394.84458018453205,404.1412982166021 L394.84473062243046,404.24560496105704 M394.84473062243046,404.24560496105704 L394.90444526772126,404.3368131680962 M394.90444526772126,404.3368131680962 L395.0014588223923,404.40401694786493 M395.0014588223923,404.40401694786493 L395.10526523922806,404.44579575136635 M395.10526523922806,404.44579575136635 L395.2032251636362,404.47004776616717 M395.2032251636362,404.47004776616717 L395.3002997556834,404.48371700540014 M395.3002997556834,404.48371700540014 L395.3936890110809,404.48883767230353 M395.3936890110809,404.48883767230353 L395.47236785412235,404.4876693494114 M395.47236785412235,404.4876693494114 L395.5535349124405,404.4815007585972 M395.9441889417247,404.47138042940117 L395.94414077364064,404.24689330372087 M395.5535918011657,404.7060243492365 L395.653062958292,404.69227402486774 M395.653062958292,404.69227402486774 L395.7180813942302,404.6769904898508 M395.7180813942302,404.6769904898508 L395.7685414169707,404.65792572366723 M395.7685414169707,404.65792572366723 L395.81194912257905,404.63274576984867 M395.81194912257905,404.63274576984867 L395.8792767306444,404.5679810833747 M395.8792767306444,404.5679810833747 L395.9441889417247,404.47138042940117 M395.5535349124405,404.4815007585972 L395.6530082887195,404.46775257105105 M395.6530082887195,404.46775257105105 L395.71802817542607,404.45247141112793 M395.71802817542607,404.45247141112793 L395.7684893243633,404.43340960766113 M395.7684893243633,404.43340960766113 L395.8118979990987,404.40823356689594 M395.8118979990987,404.40823356689594 L395.8792271112638,404.3434789451848 M395.8792271112638,404.3434789451848 L395.94414077364064,404.24689330372087 M396.875360635712,403.92387893282887 L396.8753332440611,403.69947689945826 M395.9441889417247,404.47138042940117 L396.1252207746337,404.2733584794631 M396.1252207746337,404.2733584794631 L396.43020594205416,404.09404884071876 M396.43020594205416,404.09404884071876 L396.875360635712,403.92387893282887 M395.94414077364064,404.24689330372087 L396.12517665036614,404.04890212899795 M396.12517665036614,404.04890212899795 L396.430168623001,403.86962035852366 M396.430168623001,403.86962035852366 L396.8753332440611,403.69947689945826 M397.5741711657747,403.66306413456925 L397.5741593528554,403.43870264057784 M396.875360635712,403.92387893282887 L397.5741711657747,403.66306413456925 M396.8753332440611,403.69947689945826 L397.5741593528554,403.43870264057784 M397.8602918045436,403.53606889794617 L397.8602863684028,403.31172714414885 M397.5741711657747,403.66306413456925 L397.8602918045436,403.53606889794617 M397.5741593528554,403.43870264057784 L397.8602863684028,403.31172714414885 M398.5808115395379,403.53330718818006 L398.5808221586246,403.30896586367055 M397.8602918045436,403.53606889794617 L398.5808115395379,403.53330718818006 M397.8602863684028,403.31172714414885 L398.5808221586246,403.30896586367055 M400.6816452859687,403.41926962918046 L400.68170271237847,403.1949460312144 M398.5808115395379,403.53330718818006 L399.77859430543,403.4967511812778 M399.77859430543,403.4967511812778 L400.6816452859687,403.41926962918046 M398.5808221586246,403.30896586367055 L399.7786316134204,403.27241553915866 M399.7786316134204,403.27241553915866 L400.68170271237847,403.1949460312144 M404.17314228784835,402.5406256481907 L404.17327741351653,402.3164386462404 M400.6816452859687,403.41926962918046 L402.26111982957457,403.0716818758653 M402.26111982957457,403.0716818758653 L404.17314228784835,402.5406256481907 M400.68170271237847,403.1949460312144 L402.2612124224543,402.84741231143346 M402.2612124224543,402.84741231143346 L404.17327741351653,402.3164386462404 M405.5537539519015,402.1412184691683 L405.55391976478177,401.91709356898684 M404.17314228784835,402.5406256481907 L405.5537539519015,402.1412184691683 M404.17327741351653,402.3164386462404 L405.55391976478177,401.91709356898684 M405.5537539519015,402.1412184691683 L406.8344189747227,401.7335728680881 M405.55391976478177,401.91709356898684 L406.83461323014416,401.5095113564321 M405.0586914911423,401.9397558722377 L405.0588462600654,401.7156622985763 M403.70754790172106,402.3302836536424 L403.707672639984,402.10612935598556 M405.0586914911423,401.9397558722377 L403.70754790172106,402.3302836536424 M405.0588462600654,401.7156622985763 L403.707672639984,402.10612935598556 M400.09412732619035,403.213396000311 L400.0941716549911,402.9891044054885 M403.70754790172106,402.3302836536424 L401.54291918854346,402.9260666037999 M401.54291918854346,402.9260666037999 L400.67222832325245,403.121655368345 M400.67222832325245,403.121655368345 L400.3425664112197,403.1812905030815 M400.3425664112197,403.1812905030815 L400.09412732619035,403.213396000311 M403.707672639984,402.10612935598556 L401.5429957748972,402.7018196769561 M401.5429957748972,402.7018196769561 L400.6722855263533,402.8973780351249 M400.6722855263533,402.8973780351249 L400.34261627327356,402.9570038992072 M400.34261627327356,402.9570038992072 L400.0941716549911,402.9891044054885 M399.0107373217054,403.2697667134429 L399.01075751653605,403.04546635562036 M400.09412732619035,403.213396000311 L399.0107373217054,403.2697667134429 M400.0941716549911,402.9891044054885 L399.01075751653605,403.04546635562036 M398.8556701659181,403.156075810728 L398.85568690462776,402.9317931266198 M399.0107373217054,403.2697667134429 L398.957080171902,403.23366031715483 M398.957080171902,403.23366031715483 L398.8556701659181,403.156075810728 M399.01075751653605,403.04546635562036 L398.9570991708058,403.00936557216926 M398.9570991708058,403.00936557216926 L398.85568690462776,402.9317931266198 M398.7202856278036,403.0489708113853 L398.7202993495,402.8247047776035 M398.8556701659181,403.156075810728 L398.7202856278036,403.0489708113853 M398.85568690462776,402.9317931266198 L398.7202993495,402.8247047776035 M398.53317855911774,403.07464722656846 L398.53318811333406,402.8503772011462 M398.7202856278036,403.0489708113853 L398.53317855911774,403.07464722656846 M398.7202993495,402.8247047776035 L398.53318811333406,402.8503772011462 M397.7068006493103,403.2350763756883 L397.70679179505726,403.0107814105718 M398.53317855911774,403.07464722656846 L397.7068006493103,403.2350763756883 M398.53318811333406,402.8503772011462 L397.70679179505726,403.0107814105718 M397.53341846364566,403.2498334417549 L397.5334057467117,403.0255361826076 M397.7068006493103,403.2350763756883 L397.65176092028435,403.24596081467206 M397.65176092028435,403.24596081467206 L397.61829219563214,403.2499705868406 M397.61829219563214,403.2499705868406 L397.5859903047412,403.2520741521991 M397.5859903047412,403.2520741521991 L397.55660227649236,403.2520610141106 M397.55660227649236,403.2520610141106 L397.53341846364566,403.2498334417549 M397.70679179505726,403.0107814105718 L397.65175083979346,403.02166415753567 M397.65175083979346,403.02166415753567 L397.61828136949885,403.0256733063738 M397.61828136949885,403.0256733063738 L397.5859787589728,403.02777654472726 M397.5859787589728,403.02777654472726 L397.55659007602173,403.0277634086812 M397.55659007602173,403.0277634086812 L397.5334057467117,403.0255361826076 M397.5527050950095,403.2245523335762 L397.55269280798586,403.0002590044586 M397.53341846364566,403.2498334417549 L397.50073735238783,403.2375852858348 M397.50073735238783,403.2375852858348 L397.5158224555174,403.23135157076774 M397.5158224555174,403.23135157076774 L397.5527050950095,403.2245523335762 M397.5334057467117,403.0255361826076 L397.50072390752047,403.01328993069995 M397.50072390752047,403.01328993069995 L397.51580934677474,403.00705718468464 M397.51580934677474,403.00705718468464 L397.55269280798586,403.0002590044586 M397.80715093554517,403.17134830866326 L397.80714431718593,402.9470632503565 M397.5527050950095,403.2245523335762 L397.80715093554517,403.17134830866326 M397.55269280798586,403.0002590044586 L397.80714431718593,402.9470632503565 M397.97171028053265,403.1315230596846 L397.97170732806234,402.90724419246163 M397.80715093554517,403.17134830866326 L397.97171028053265,403.1315230596846 M397.80714431718593,402.9470632503565 L397.97170732806234,402.90724419246163 M397.7818907112203,403.02552610023673 L397.7818835309831,402.8012637111762 M397.97171028053265,403.1315230596846 L397.7818907112203,403.02552610023673 M397.97170732806234,402.90724419246163 L397.7818835309831,402.8012637111762 M397.5713178076624,402.9199837585156 L397.5713059381464,402.6957377773373 M397.7818907112203,403.02552610023673 L397.64175152590917,402.9508124915673 M397.64175152590917,402.9508124915673 L397.59364905202807,402.9278685425753 M397.59364905202807,402.9278685425753 L397.5713178076624,402.9199837585156 M397.7818835309831,402.8012637111762 L397.6417412248412,402.72656171763464 M397.6417412248412,402.72656171763464 L397.59363767980244,402.7036213355948 M397.59363767980244,402.7036213355948 L397.5713059381464,402.6957377773373 M396.3215979832196,403.2034818530466 L396.32155827102406,402.97919179942033 M397.5713178076624,402.9199837585156 L396.9555897058472,403.0455428831668 M396.9555897058472,403.0455428831668 L396.3215979832196,403.2034818530466 M397.5713059381464,402.6957377773373 L396.9555641202898,402.8212773822903 M396.9555641202898,402.8212773822903 L396.32155827102406,402.97919179942033 M396.1747800818422,403.2607718949415 L396.1747370970325,403.0364729353835 M396.3215979832196,403.2034818530466 L396.1747800818422,403.2607718949415 M396.32155827102406,402.97919179942033 L396.1747370970325,403.0364729353835 M395.8211941281372,403.2110727162439 L395.8211432681375,402.9867814825855 M396.1747800818422,403.2607718949415 L395.8211941281372,403.2110727162439 M396.1747370970325,403.0364729353835 L395.8211432681375,402.9867814825855 M395.1490284457144,403.14504708724115 L395.14896261523205,402.9207661176172 M395.8211941281372,403.2110727162439 L395.1490284457144,403.14504708724115 M395.8211432681375,402.9867814825855 L395.14896261523205,402.9207661176172 M394.56927257137903,403.091125277138 L394.56919382963616,402.86685269006 M395.1490284457144,403.14504708724115 L394.56927257137903,403.091125277138 M395.14896261523205,402.9207661176172 L394.56919382963616,402.86685269006 M393.4663172557838,402.963394237677 L393.46621395614704,402.7391415077471 M394.56927257137903,403.091125277138 L393.4663172557838,402.963394237677 M394.56919382963616,402.86685269006 L393.46621395614704,402.7391415077471 M392.5588590119374,402.8512643233378 L392.5587355116731,402.6270290256698 M393.4663172557838,402.963394237677 L392.5588590119374,402.8512643233378 M393.46621395614704,402.7391415077471 L392.5587355116731,402.6270290256698 M392.1839421589847,402.8118269843566 L392.1838103131491,402.58759781791485 M392.5588590119374,402.8512643233378 L392.51027424256716,402.84155009510084 M392.51027424256716,402.84155009510084 L392.4216094666431,402.8306099649944 M392.4216094666431,402.8306099649944 L392.1839421589847,402.8118269843566 M392.5587355116731,402.6270290256698 L392.51014966124114,402.6173163076749 M392.51014966124114,402.6173163076749 L392.42148291179547,402.6063778784018 M392.42148291179547,402.6063778784018 L392.1838103131491,402.58759781791485 M391.8748309842319,402.7943791869744 L391.87469225638154,402.57015273311623 M392.1839421589847,402.8118269843566 L391.8748309842319,402.7943791869744 M392.1838103131491,402.58759781791485 L391.87469225638154,402.57015273311623 M391.7201822022176,402.7027347411763 L391.7200400407006,402.47852253532307 M391.8748309842319,402.7943791869744 L391.7201822022176,402.7027347411763 M391.87469225638154,402.57015273311623 L391.7200400407006,402.47852253532307 M391.52649390835006,402.5015639164704 L391.52634745710947,402.27738298777945 M391.7201822022176,402.7027347411763 L391.6353600707683,402.6411301115133 M391.6353600707683,402.6411301115133 L391.5669324651013,402.5700564204663 M391.5669324651013,402.5700564204663 L391.52649390835006,402.5015639164704 M391.7200400407006,402.47852253532307 L391.63521602745305,402.4169274835276 M391.63521602745305,402.4169274835276 L391.56678690630537,402.34586484269937 M391.56678690630537,402.34586484269937 L391.52634745710947,402.27738298777945 M391.441634168223,402.37669742902796 L391.44148584229913,402.1525359147524 M391.52649390835006,402.5015639164704 L391.4854667129605,402.4196957552369 M391.4854667129605,402.4196957552369 L391.46206374343143,402.3908528066312 M391.46206374343143,402.3908528066312 L391.441634168223,402.37669742902796 M391.52634745710947,402.27738298777945 L391.4853193578307,402.19552755545953 M391.4853193578307,402.19552755545953 L391.4619158706593,402.1666890914302 M391.4619158706593,402.1666890914302 L391.44148584229913,402.1525359147524 M391.73340074750735,402.11569480292303 L391.73325894636315,401.8915738714768 M391.441634168223,402.37669742902796 L391.43498698370985,402.36511927008297 M391.43498698370985,402.36511927008297 L391.4460750030833,402.3412184986318 M391.4460750030833,402.3412184986318 L391.57459261327955,402.21444987432983 M391.57459261327955,402.21444987432983 L391.6632587410047,402.150986972861 M391.6632587410047,402.150986972861 L391.70163955465483,402.1292409557445 M391.70163955465483,402.1292409557445 L391.73340074750735,402.11569480292303 M391.44148584229913,402.1525359147524 L391.4348385111667,402.1409595560236 M391.4348385111667,402.1409595560236 L391.4459267801931,402.1170625007701 M391.4459267801931,402.1170625007701 L391.5744472660324,401.99031358735226 M391.5744472660324,401.99031358735226 L391.663115374641,401.92686055375805 M391.663115374641,401.92686055375805 L391.70149704504536,401.905117917972 M391.70149704504536,401.905117917972 L391.73325894636315,401.8915738714768 M392.0288645663293,402.11141217727425 L392.02872934201923,401.8872919117458 M391.73340074750735,402.11569480292303 L391.76977413739064,402.10930344053133 M391.76977413739064,402.10930344053133 L391.82984282977407,402.10580865901494 M391.82984282977407,402.10580865901494 L391.92421207567537,402.10603393031033 M391.92421207567537,402.10603393031033 L392.0288645663293,402.11141217727425 M391.73325894636315,401.8915738714768 L391.7696331465528,401.8851835028967 M391.7696331465528,401.8851835028967 L391.8297031763135,401.88168926479466 M391.8297031763135,401.88168926479466 L391.92407452262563,401.8819145010619 M391.92407452262563,401.8819145010619 L392.02872934201923,401.8872919117458 M392.6784472227346,402.1603818063263 L392.6783264519664,401.9362539264075 M392.0288645663293,402.11141217727425 L392.6784472227346,402.1603818063263 M392.02872934201923,401.8872919117458 L392.6783264519664,401.9362539264075 M393.92046478708085,402.17512517572277 L393.9203716607831,401.95099500334317 M392.6784472227346,402.1603818063263 L393.19376620377443,402.1803999076484 M393.19376620377443,402.1803999076484 L393.92046478708085,402.17512517572277 M392.6783264519664,401.9362539264075 L393.19365690154467,401.9562689150975 M393.19365690154467,401.9562689150975 L393.9203716607831,401.95099500334317 M395.27033582522097,402.0801954081421 L395.2702727502489,401.85607999661863 M393.92046478708085,402.17512517572277 L394.80972706980117,402.1500104954179 M394.80972706980117,402.1500104954179 L395.0241654178484,402.1311871858761 M395.0241654178484,402.1311871858761 L395.1461933448879,402.10997515181634 M395.1461933448879,402.10997515181634 L395.27033582522097,402.0801954081421 M393.9203716607831,401.95099500334317 L394.8096537389196,401.92588422814896 M394.8096537389196,401.92588422814896 L395.0240968610462,401.90706384547985 M395.0240968610462,401.90706384547985 L395.1461275053,401.8858551097353 M395.1461275053,401.8858551097353 L395.2702727502489,401.85607999661863 M395.03636598288494,401.7927835237741 L395.0362977159706,401.56871280455 M395.27033582522097,402.0801954081421 L395.38719620147504,402.05132655763043 M395.38719620147504,402.05132655763043 L395.410752327512,402.04439866374554 M395.410752327512,402.04439866374554 L395.4270771061046,402.03811712064123 M395.4270771061046,402.03811712064123 L395.44290731584414,402.02633656109265 M395.44290731584414,402.02633656109265 L395.44221029749235,402.0126333608139 M395.44221029749235,402.0126333608139 L395.42491478687583,401.9951520364908 M395.42491478687583,401.9951520364908 L395.3890760104306,401.9718973836774 M395.3890760104306,401.9718973836774 L395.03636598288494,401.7927835237741 M395.2702727502489,401.85607999661863 L395.38713572886934,401.8272156350566 M395.38713572886934,401.8272156350566 L395.41069237951655,401.8202888184258 M395.41069237951655,401.8202888184258 L395.4270175217391,401.8140082520729 M395.4270175217391,401.8140082520729 L395.44284808435606,401.80222952435133 M395.44284808435606,401.80222952435133 L395.4421510511352,401.7885284548682 M395.4421510511352,401.7885284548682 L395.424855156417,401.7710498488344 M395.424855156417,401.7710498488344 L395.38901558347027,401.7477988120607 M395.38901558347027,401.7477988120607 L395.0362977159706,401.56871280455 M394.0884059033998,401.35249669077524 L394.0883165735947,401.1284944414278 M395.03636598288494,401.7927835237741 L394.0884059033998,401.35249669077524 M395.0362977159706,401.56871280455 L394.0883165735947,401.1284944414278 M393.3854478090565,400.97867617500685 L393.3853428735598,400.7547320645988 M394.0884059033998,401.35249669077524 L393.5610352157823,401.10583944768183 M393.5610352157823,401.10583944768183 L393.44949561618387,401.0387420917916 M393.44949561618387,401.0387420917916 L393.3854478090565,400.97867617500685 M394.0883165735947,401.1284944414278 L393.56093417475233,400.8818755594809 M393.56093417475233,400.8818755594809 L393.44939210002946,400.81478863921825 M393.44939210002946,400.81478863921825 L393.3853428735598,400.7547320645988 M393.61831948561115,400.8085081358634 L393.61821974212717,400.58459049270266 M393.3854478090565,400.97867617500685 L393.3479387517031,400.9107445404453 M393.3479387517031,400.9107445404453 L393.3524786838321,400.8929979867694 M393.3524786838321,400.8929979867694 L393.36728274310553,400.8785004973622 M393.36728274310553,400.8785004973622 L393.39627331511656,400.86388070455007 M393.39627331511656,400.86388070455007 L393.4817167541428,400.83855864136183 M393.4817167541428,400.83855864136183 L393.61831948561115,400.8085081358634 M393.3853428735598,400.7547320645988 L393.3478329877938,400.6868109957259 M393.3478329877938,400.6868109957259 L393.35237302236374,400.66906720227183 M393.35237302236374,400.66906720227183 L393.3671774120358,400.65457196774946 M393.3671774120358,400.65457196774946 L393.39616862989504,400.63995444885217 M393.39616862989504,400.63995444885217 L393.48161397088245,400.61463632419293 M393.48161397088245,400.61463632419293 L393.61821974212717,400.58459049270266 M393.74547164699305,400.75676783553973 L393.7453747346836,400.53285824005843 M393.61831948561115,400.8085081358634 L393.6986771005973,400.79047357981733 M393.6986771005973,400.79047357981733 L393.74352092871146,400.77691464252575 M393.74352092871146,400.77691464252575 L393.7584965767162,400.76614038569596 M393.7584965767162,400.76614038569596 L393.74547164699305,400.75676783553973 M393.61821974212717,400.58459049270266 L393.69857914524545,400.56655874173833 M393.69857914524545,400.56655874173833 L393.7434239714792,400.55300191340143 M393.7434239714792,400.55300191340143 L393.7583999532816,400.5422293324023 M393.7583999532816,400.5422293324023 L393.7453747346836,400.53285824005843 M395.28469869102497,400.1660658627913 L395.2846360310011,399.94224815171293 M393.74547164699305,400.75676783553973 L393.75196594775014,400.74221095649995 M393.75196594775014,400.74221095649995 L393.8100301679756,400.71137636101525 M393.8100301679756,400.71137636101525 L394.08256930459333,400.5999803544621 M394.08256930459333,400.5999803544621 L395.28469869102497,400.1660658627913 M393.7453747346836,400.53285824005843 L393.75186918095216,400.5183036252105 M393.75186918095216,400.5183036252105 L393.80993469448896,400.4874738257955 M393.80993469448896,400.4874738257955 L394.08247989838077,400.37609514626143 M394.08247989838077,400.37609514626143 L395.2846360310011,399.94224815171293 M396.24373121844127,399.81087417078754 L396.2436898830317,399.5871117161342 M395.28469869102497,400.1660658627913 L396.24373121844127,399.81087417078754 M395.2846360310011,399.94224815171293 L396.2436898830317,399.5871117161342 M397.67532354280263,399.34676449463655 L397.67531401675774,399.1230742472613 M396.24373121844127,399.81087417078754 L397.67532354280263,399.34676449463655 M396.2436898830317,399.5871117161342 L397.67531401675774,399.1230742472613 M398.1536600221693,399.2241675154652 L398.1536611193549,399.00049634328667 M397.67532354280263,399.34676449463655 L398.1536600221693,399.2241675154652 M397.67531401675774,399.1230742472613 L398.1536611193549,399.00049634328667 M398.3124670984739,399.3204737350976 L398.3124717226037,399.09678757832825 M398.1536600221693,399.2241675154652 L398.1781077223257,399.2237480443952 M398.1781077223257,399.2237480443952 L398.2048308292538,399.2337601119189 M398.2048308292538,399.2337601119189 L398.2362864769199,399.2533118154627 M398.2362864769199,399.2533118154627 L398.3124670984739,399.3204737350976 M398.1536611193549,399.00049634328667 L398.17810936241483,399.0000769374842 M398.17810936241483,399.0000769374842 L398.2048330627941,399.0100874471831 M398.2048330627941,399.0100874471831 L398.23628940903893,399.02963610859535 M398.23628940903893,399.02963610859535 L398.3124717226037,399.09678757832825 M399.18767458770486,399.9245580945331 L399.18769866039634,399.70077795382605 M398.3124670984739,399.3204737350976 L399.18767458770486,399.9245580945331 M398.3124717226037,399.09678757832825 L399.18769866039634,399.70077795382605 M399.5817176952764,400.04383560745805 L399.58175052637046,399.820036910981 M399.18767458770486,399.9245580945331 L399.35685316707736,399.9850093174579 M399.35685316707736,399.9850093174579 L399.5817176952764,400.04383560745805 M399.18769866039634,399.70077795382605 L399.356881000105,399.76121977240933 M399.356881000105,399.76121977240933 L399.58175052637046,399.820036910981 M400.50840308034196,400.1670731220431 L400.50845650875226,399.94325525427394 M399.5817176952764,400.04383560745805 L399.9081920097881,400.10251806991675 M399.9081920097881,400.10251806991675 L400.365525751522,400.1599466332173 M400.365525751522,400.1599466332173 L400.44852294091436,400.1658953015849 M400.44852294091436,400.1658953015849 L400.50840308034196,400.1670731220431 M399.58175052637046,399.820036910981 L399.9082320974105,399.87871024450783 M399.9082320974105,399.87871024450783 L400.36557600442745,399.93612987405686 M400.36557600442745,399.93612987405686 L400.4485750385355,399.9420776170393 M400.4485750385355,399.9420776170393 L400.50845650875226,399.94325525427394 M400.6362948988553,400.04150112061586 L400.6363511638442,399.81770278730556 M400.50840308034196,400.1670731220431 L400.5437153138721,400.1580311594269 M400.5437153138721,400.1580311594269 L400.56093900592145,400.1476077663649 M400.56093900592145,400.1476077663649 L400.577611104991,400.13340016600614 M400.577611104991,400.13340016600614 L400.6362948988553,400.04150112061586 M400.50845650875226,399.94325525427394 L400.5437695266511,399.93421469824114 M400.5437695266511,399.93421469824114 L400.56099360101473,399.92379292666413 M400.56099360101473,399.92379292666413 L400.57766606996887,399.90958753647556 M400.57766606996887,399.90958753647556 L400.6363511638442,399.81770278730556 M400.6893270734359,399.9182653008068 L400.6893845112389,399.69448613907133 M400.6362948988553,400.04150112061586 L400.6893270734359,399.9182653008068 M400.6363511638442,399.81770278730556 L400.6893845112389,399.69448613907133 M400.4442069608468,399.89724782078736 L400.4442589514554,399.6734719287569 M400.6893270734359,399.9182653008068 L400.4442069608468,399.89724782078736 M400.6893845112389,399.69448613907133 L400.4442589514554,399.6734719287569 M399.52975135027015,399.6018417818836 L399.5297830154859,399.3781118480413 M400.4442069608468,399.89724782078736 L400.17699529946907,399.8642756481008 M400.17699529946907,399.8642756481008 L399.9943573510185,399.8233802562021 M399.9943573510185,399.8233802562021 L399.84103377687444,399.7705766547918 M399.84103377687444,399.7705766547918 L399.6877194978989,399.69731383593984 M399.6877194978989,399.69731383593984 L399.52975135027015,399.6018417818836 M400.4442589514554,399.6734719287569 L400.17704135179173,399.6405048856074 M400.17704135179173,399.6405048856074 L399.9943993441164,399.59961585592765 M399.9943993441164,399.59961585592765 L399.8410723619121,399.54682046941963 M399.8410723619121,399.54682046941963 L399.6877546747969,399.4735690485686 M399.6877546747969,399.4735690485686 L399.5297830154859,399.3781118480413 M399.06552001212486,399.24000801480133 L399.0655413590329,399.0163343779266 M399.52975135027015,399.6018417818836 L399.06552001212486,399.24000801480133 M399.5297830154859,399.3781118480413 L399.0655413590329,399.0163343779266 M398.85109376910384,399.0423848873566 L398.851110351635,398.818742000207 M399.06552001212486,399.24000801480133 L398.85109376910384,399.0423848873566 M399.0655413590329,399.0163343779266 L398.851110351635,398.818742000207 M399.11058008384276,398.9513533760939 L399.11060242627366,398.72772465371156 M398.85109376910384,399.0423848873566 L399.11058008384276,398.9513533760939 M398.851110351635,398.818742000207 L399.11060242627366,398.72772465371156 M400.0211895628054,398.6511728909532 L400.02123211237694,398.4275908795979 M399.11058008384276,398.9513533760939 L400.0211895628054,398.6511728909532 M399.11060242627366,398.72772465371156 L400.02123211237694,398.4275908795979 M401.21085280782233,398.14868033275667 L401.21092173636725,397.92517652128936 M400.0211895628054,398.6511728909532 L400.84094127738206,398.3592759159273 M400.84094127738206,398.3592759159273 L401.0755977160162,398.2467059037587 M401.0755977160162,398.2467059037587 L401.21085280782233,398.14868033275667 M400.02123211237694,398.4275908795979 L400.841002008588,398.1357393296539 M400.841002008588,398.1357393296539 L401.0756636486936,398.02318683646297 M401.0756636486936,398.02318683646297 L401.21092173636725,397.92517652128936 M401.5620450275663,397.9534757718751 L401.562121736369,397.73000234132087 M401.21085280782233,398.14868033275667 L401.34393729951626,398.060088062399 M401.34393729951626,398.060088062399 L401.5620450275663,397.9534757718751 M401.21092173636725,397.92517652128936 L401.34400917584304,397.83659803893715 M401.34400917584304,397.83659803893715 L401.562121736369,397.73000234132087 M401.73035028245437,397.8020377606476 L401.73043071530225,397.57858790026955 M401.5620450275663,397.9534757718751 L401.78178583839747,397.85206409175754 M401.78178583839747,397.85206409175754 L401.7976496490294,397.8356485504485 M401.7976496490294,397.8356485504485 L401.7915807013394,397.8241061842931 M401.7915807013394,397.8241061842931 L401.76832876008274,397.8136393311685 M401.76832876008274,397.8136393311685 L401.73035028245437,397.8020377606476 M401.562121736369,397.73000234132087 L401.7818674154185,397.6286064450715 M401.7818674154185,397.6286064450715 L401.79773157687976,397.6121934587365 M401.79773157687976,397.6121934587365 L401.7916624938157,397.60065288908226 M401.7916624938157,397.60065288908226 L401.76841003610633,397.59018766506546 M401.76841003610633,397.59018766506546 L401.73043071530225,397.57858790026955 M401.64126995799904,397.76297243160775 L401.64134841245885,397.5395286515828 M401.73035028245437,397.8020377606476 L401.6586773813625,397.7773651038125 M401.6586773813625,397.7773651038125 L401.64126995799904,397.76297243160775 M401.73043071530225,397.57858790026955 L401.65875622283875,397.5539190836228 M401.65875622283875,397.5539190836228 L401.64134841245885,397.5395286515828 M401.9886661025884,397.7597456646511 L401.98875226240824,397.53630238686117 M401.64126995799904,397.76297243160775 L401.6741840465277,397.7605622557357 M401.6741840465277,397.7605622557357 L401.75209138618203,397.7591013764297 M401.75209138618203,397.7591013764297 L401.9886661025884,397.7597456646511 M401.64134841245885,397.5395286515828 L401.6742632309019,397.5371188508463 M401.6742632309019,397.5371188508463 L401.75217229851864,397.5356581989211 M401.75217229851864,397.5356581989211 L401.98875226240824,397.53630238686117 M402.65234520055566,397.5761859957707 L402.65244606664214,397.35277128900844 M401.9886661025884,397.7597456646511 L402.16871581428194,397.75826940435905 M402.16871581428194,397.75826940435905 L402.29871205340277,397.7492773254286 M402.29871205340277,397.7492773254286 L402.3854484993196,397.73564962858507 M402.3854484993196,397.73564962858507 L402.45176719227703,397.7178500322724 M402.45176719227703,397.7178500322724 L402.5090404759795,397.69423215785105 M402.5090404759795,397.69423215785105 L402.585481775617,397.64412205899555 M402.585481775617,397.64412205899555 L402.65234520055566,397.5761859957707 M401.98875226240824,397.53630238686117 L402.1688059676617,397.53482635634407 M402.1688059676617,397.53482635634407 L402.29880508954767,397.52583567700174 M402.29880508954767,397.52583567700174 L402.38554345831153,397.5122101012708 M402.38554345831153,397.5122101012708 L402.45186362088344,397.494413275425 M402.45186362088344,397.494413275425 L402.5091381730805,397.4707990770895 M402.5091381730805,397.4707990770895 L402.5855811642029,397.4206967778593 M402.5855811642029,397.4206967778593 L402.65244606664214,397.35277128900844 M402.95651990621195,397.45965500217847 L402.956627508202,397.23625843406035 M402.65234520055566,397.5761859957707 L402.7450831838111,397.4837556308292 M402.7450831838111,397.4837556308292 L402.7842022277813,397.46172918050877 M402.7842022277813,397.46172918050877 L402.80683379579807,397.45412659439046 M402.80683379579807,397.45412659439046 L402.8493850941495,397.4480993184852 M402.8493850941495,397.4480993184852 L402.89840571949577,397.4502771675055 M402.89840571949577,397.4502771675055 L402.95651990621195,397.45965500217847 M402.65244606664214,397.35277128900844 L402.7451860990374,397.260355311286 M402.7451860990374,397.260355311286 L402.78430600869325,397.23833228953015 M402.78430600869325,397.23833228953015 L402.80693807794853,397.23073088680917 M402.80693807794853,397.23073088680917 L402.84949031939186,397.22470454909444 M402.84949031939186,397.22470454909444 L402.89851203197463,397.22688205911606 M402.89851203197463,397.22688205911606 L402.956627508202,397.23625843406035 M403.06878486085475,397.48199288727506 L403.0688949543461,397.25859284211396 M402.95651990621195,397.45965500217847 L403.06878486085475,397.48199288727506 M402.956627508202,397.23625843406035 L403.0688949543461,397.25859284211396 M403.24580313655883,397.3848284332397 L403.24591714678934,397.16144351251194 M403.06878486085475,397.48199288727506 L403.24580313655883,397.3848284332397 M403.0688949543461,397.25859284211396 L403.24591714678934,397.16144351251194 M403.4260377509278,397.26895958779505 L403.42615574684737,397.045592703426 M403.24580313655883,397.3848284332397 L403.3717650019665,397.31071008380843 M403.3717650019665,397.31071008380843 L403.4113764436583,397.28346139211624 M403.4113764436583,397.28346139211624 L403.4260377509278,397.26895958779505 M403.24591714678934,397.16144351251194 L403.37188179841974,397.08733670042534 M403.37188179841974,397.08733670042534 L403.41149411586247,397.0600922503437 M403.41149411586247,397.0600922503437 L403.42615574684737,397.045592703426 M402.7262906091364,397.1662803674666 L402.7263930817147,396.942929466731 M403.4260377509278,397.26895958779505 L403.4096192505877,397.2588587591724 M403.4096192505877,397.2588587591724 L403.35834058092024,397.2452075046615 M403.35834058092024,397.2452075046615 L403.1052815450222,397.20201014377574 M403.1052815450222,397.20201014377574 L402.8278104757574,397.1705747693611 M402.8278104757574,397.1705747693611 L402.7713766729726,397.16710003778405 M402.7713766729726,397.16710003778405 L402.7262906091364,397.1662803674666 M403.42615574684737,397.045592703426 L403.4097368815264,397.0354934471396 M403.4097368815264,397.0354934471396 L403.3584570736387,397.0218443176442 M403.3584570736387,397.0218443176442 L403.1053924231469,396.97865368109706 M403.1053924231469,396.97865368109706 L402.82791519943294,396.9472232001269 M402.82791519943294,396.9472232001269 L402.7714801451958,396.9437490094525 M402.7714801451958,396.9437490094525 L402.7263930817147,396.942929466731 M401.97297195300564,397.43763686863537 L401.97305774271706,397.21424372780604 M402.7262906091364,397.1662803674666 L402.61758323773387,397.17270359216934 M402.61758323773387,397.17270359216934 L402.5096338031682,397.18790735565034 M402.5096338031682,397.18790735565034 L402.4043651761155,397.21119937348266 M402.4043651761155,397.21119937348266 L402.3036992837067,397.24188739041705 M402.3036992837067,397.24188739041705 L402.1799638367441,397.29311329047357 M402.1799638367441,397.29311329047357 L402.06400288099127,397.36036131641004 M402.06400288099127,397.36036131641004 L401.97297195300564,397.43763686863537 M402.7263930817147,396.942929466731 L402.6176833007347,396.9493516915471 M402.6176833007347,396.9493516915471 L402.5097314740538,396.9645530883035 M402.5097314740538,396.9645530883035 L402.40446051487817,396.98784148035253 M402.40446051487817,396.98784148035253 L402.3037923928584,397.01852472022466 M402.3037923928584,397.01852472022466 L402.1800542061481,397.0697426462555 M402.1800542061481,397.0697426462555 L402.064090683932,397.1369802042394 M402.064090683932,397.1369802042394 L401.97305774271706,397.21424372780604 M401.8952448001176,397.4990661595175 L401.8953288703233,397.275663456798 M401.97297195300564,397.43763686863537 L401.92551608951595,397.4818818670427 M401.92551608951595,397.4818818670427 L401.8952448001176,397.4990661595175 M401.97305774271706,397.21424372780604 L401.9256008298677,397.25848183916264 M401.9256008298677,397.25848183916264 L401.8953288703233,397.275663456798 M401.70153394945896,397.49303679185965 L401.70161372349077,397.26963502764653 M401.8952448001176,397.4990661595175 L401.70153394945896,397.49303679185965 M401.8953288703233,397.275663456798 L401.70161372349077,397.26963502764653 M401.3342027019257,397.3905262071207 L401.334274324102,397.1671403994791 M401.70153394945896,397.49303679185965 L401.59203964940724,397.4881686386188 M401.59203964940724,397.4881686386188 L401.55192116220366,397.48259428318516 M401.55192116220366,397.48259428318516 L401.5306892244542,397.4778600453299 M401.5306892244542,397.4778600453299 L401.50947015475225,397.4716999040437 M401.50947015475225,397.4716999040437 L401.46282702672323,397.4537543627664 M401.46282702672323,397.4537543627664 L401.3342027019257,397.3905262071207 M401.70161372349077,397.26963502764653 L401.59211699497206,397.26476763216334 M401.59211699497206,397.26476763216334 L401.5519976177571,397.259194144413 M401.5519976177571,397.259194144413 L401.53076520888146,397.25446064347227 M401.53076520888146,397.25446064347227 L401.5095456682567,397.248301461053 M401.5095456682567,397.248301461053 L401.46290150481406,397.23035871312584 M401.46290150481406,397.23035871312584 L401.334274324102,397.1671403994791 M399.3048201695811,396.7056895013637 L399.3048467769261,396.48241030340984 M401.3342027019257,397.3905262071207 L400.6272216007593,397.120757715796 M400.6272216007593,397.120757715796 L399.3048201695811,396.7056895013637 M401.334274324102,397.1671403994791 L400.6272775340471,396.89741390149527 M400.6272775340471,396.89741390149527 L399.3048467769261,396.48241030340984 M398.51415771209787,396.4700133793718 L398.5141667948394,396.2467708733472 M399.3048201695811,396.7056895013637 L398.51415771209787,396.4700133793718 M399.3048467769261,396.48241030340984 L398.5141667948394,396.2467708733472 M398.21057409563633,396.29752335860206 L398.2105764512061,396.07430770843564 M398.51415771209787,396.4700133793718 L398.21057409563633,396.29752335860206 M398.5141667948394,396.2467708733472 L398.2105764512061,396.07430770843564 M397.9070738975854,396.1251035354951 L397.9070695296797,395.901914731307 M398.21057409563633,396.29752335860206 L397.9070738975854,396.1251035354951 M398.2105764512061,396.07430770843564 L397.9070695296797,395.901914731307 M398.02461180125573,396.05348341021863 L398.0246100371564,395.83030575768043 M397.9070738975854,396.1251035354951 L398.02461180125573,396.05348341021863 M397.9070695296797,395.901914731307 L398.0246100371564,395.83030575768043 M398.8571273863995,395.7770868383559 L398.8571440595016,395.55395222399176 M398.02461180125573,396.05348341021863 L398.27870865016547,395.93544330037474 M398.27870865016547,395.93544330037474 L398.59636164860547,395.8299899515552 M398.59636164860547,395.8299899515552 L398.74138106390785,395.7944725299159 M398.74138106390785,395.7944725299159 L398.80385394578343,395.783201027182 M398.80385394578343,395.783201027182 L398.8571273863995,395.7770868383559 M398.0246100371564,395.83030575768043 L398.27871251414757,395.7122840277303 M398.27871251414757,395.7122840277303 L398.59637254727335,395.6068470993499 M398.59637254727335,395.6068470993499 L398.7413951738982,395.5713352083172 M398.7413951738982,395.5713352083172 L398.80386943917233,395.5600654607381 M398.80386943917233,395.5600654607381 L398.8571440595016,395.55395222399176 M400.8262125843866,396.1413892493692 L400.8262728821717,395.9181979094305 M398.8571273863995,395.7770868383559 L398.93552074379545,395.7752190233143 M398.93552074379545,395.7752190233143 L399.08475238906186,395.7831483001298 M399.08475238906186,395.7831483001298 L399.2705051409941,395.80368515984856 M399.2705051409941,395.80368515984856 L399.73144362801634,395.88017278009386 M399.73144362801634,395.88017278009386 L400.8262125843866,396.1413892493692 M398.8571440595016,395.55395222399176 L398.93553915296224,395.55208469980005 M398.93553915296224,395.55208469980005 L399.08477410323115,395.56001274189646 M399.08477410323115,395.56001274189646 L399.27053096926926,395.5805464036979 M399.27053096926926,395.5805464036979 L399.73147966660594,395.6570221137295 M399.73147966660594,395.6570221137295 L400.8262728821717,395.9181979094305 M401.996360517301,396.4502829166024 L401.9964467578217,396.2270434824619 M400.8262125843866,396.1413892493692 L401.996360517301,396.4502829166024 M400.8262728821717,395.9181979094305 L401.9964467578217,396.2270434824619 M403.15011853259,396.77243185775916 L403.1502303665345,396.54914226918174 M401.996360517301,396.4502829166024 L403.15011853259,396.77243185775916 M401.9964467578217,396.2270434824619 L403.1502303665345,396.54914226918174 M404.1804076728809,397.0245643215257 L404.1805423686597,396.80123548172986 M403.15011853259,396.77243185775916 L403.7748820781709,396.9567432873919 M403.7748820781709,396.9567432873919 L403.963479708953,396.9958607746654 M403.963479708953,396.9958607746654 L404.1804076728809,397.0245643215257 M403.1502303665345,396.54914226918174 L403.77500777749816,396.73342500554867 M403.77500777749816,396.73342500554867 L403.9636095929192,396.7725364032376 M403.9636095929192,396.7725364032376 L404.1805423686597,396.80123548172986 M404.6492093376361,397.11824452341574 L404.6493544366001,396.8949011003416 M404.1804076728809,397.0245643215257 L404.406530486969,397.06171588567406 M404.406530486969,397.06171588567406 L404.6492093376361,397.11824452341574 M404.1805423686597,396.80123548172986 L404.4066701995554,396.838381262425 M404.4066701995554,396.838381262425 L404.6493544366001,396.8949011003416 M407.4919788213087,398.21466339591836 L407.4921871249818,397.9911493153964 M404.6492093376361,397.11824452341574 L407.4919788213087,398.21466339591836 M404.6493544366001,396.8949011003416 L407.4921871249818,397.9911493153964 M409.0087709173702,399.04804064443795 L409.00901303746787,398.82439687724576 M407.4919788213087,398.21466339591836 L408.5488326086036,398.67424274941357 M408.5488326086036,398.67424274941357 L409.0087709173702,399.04804064443795 M407.4921871249818,397.9911493153964 L408.5490644474738,398.4506571480492 M408.5490644474738,398.4506571480492 L409.00901303746787,398.82439687724576 M409.3002533008873,399.6977827552351 L409.30050202137204,399.47403789491034 M409.0087709173702,399.04804064443795 L409.2337929994543,399.3312676724672 M409.2337929994543,399.3312676724672 L409.2923857721884,399.5027893977089 M409.2923857721884,399.5027893977089 L409.3002533008873,399.6977827552351 M409.00901303746787,398.82439687724576 L409.2340401715078,399.1075798362553 M409.2340401715078,399.1075798362553 L409.2926342793837,399.27907487476284 M409.2926342793837,399.27907487476284 L409.30050202137204,399.47403789491034 M409.0927103309982,400.26566452361885 L409.0929545510468,400.0418313189855 M409.3002533008873,399.6977827552351 L409.23460387194723,400.0446623558975 M409.23460387194723,400.0446623558975 L409.0927103309982,400.26566452361885 M409.30050202137204,399.47403789491034 L409.23485120217725,399.82086353080655 M409.23485120217725,399.82086353080655 L409.0929545510468,400.0418313189855 M407.8463081219496,400.95565208599817 L407.84652475919063,400.7317115566038 M409.0927103309982,400.26566452361885 L407.8463081219496,400.95565208599817 M409.0929545510468,400.0418313189855 L407.84652475919063,400.7317115566038 M407.8463081219496,400.95565208599817 L405.0586914911423,401.9397558722377 M407.84652475919063,400.7317115566038 L405.0588462600654,401.7156622985763 M396.5895969988405,403.5978659010659 L396.5895632463149,403.37351454144476 M396.79531942587965,403.49648509892677 L396.795290260008,403.2721494981687 M396.5895969988405,403.5978659010659 L396.6860074679081,403.52503835992167 M396.6860074679081,403.52503835992167 L396.72378204660566,403.5082456704106 M396.72378204660566,403.5082456704106 L396.75806526588605,403.499857003628 M396.75806526588605,403.499857003628 L396.79531942587965,403.49648509892677 M396.5895632463149,403.37351454144476 L396.68597586561344,403.30069832074275 M396.68597586561344,403.30069832074275 L396.723751286439,403.2839082415438 M396.723751286439,403.2839082415438 L396.75803526983054,403.27552087872755 M396.75803526983054,403.27552087872755 L396.795290260008,403.2721494981687 M396.80701528384327,403.57254791125206 L396.806986376839,403.3482004870829 M396.79531942587965,403.49648509892677 L396.8626654621783,403.496150082094 M396.8626654621783,403.496150082094 L396.91163986145176,403.50296190245405 M396.91163986145176,403.50296190245405 L396.9183240735575,403.5129494238946 M396.9183240735575,403.5129494238946 L396.90308054048063,403.52764981832445 M396.90308054048063,403.52764981832445 L396.80701528384327,403.57254791125206 M396.795290260008,403.2721494981687 L396.8626377969302,403.27181453341234 M396.8626377969302,403.27181453341234 L396.91161328731613,403.2786252949159 M396.91161328731613,403.2786252949159 L396.91829764815236,403.2886112638596 M396.91829764815236,403.2886112638596 L396.90305377510026,403.30330937321264 M396.90305377510026,403.30330937321264 L396.806986376839,403.3482004870829 M396.80701528384327,403.57254791125206 L396.616837569041,403.64668161273556 M396.616837569041,403.64668161273556 L396.56746003536426,403.66347476619796 M396.56746003536426,403.66347476619796 L396.5382191360235,403.6704318000258 M396.5382191360235,403.6704318000258 L396.5297838314489,403.656818971531 M396.5297838314489,403.656818971531 L396.5895969988405,403.5978659010659 M396.806986376839,403.3482004870829 L396.6168044222617,403.4223226652183 M396.6168044222617,403.4223226652183 L396.56742578775953,403.4391132083788 M396.56742578775953,403.4391132083788 L396.5381842365895,403.44606916081875 M396.5381842365895,403.44606916081875 L396.52974874441037,403.43245844827703 M396.52974874441037,403.43245844827703 L396.5895632463149,403.37351454144476 M398.27635858570886,398.48973791654146 L398.2763624054004,398.2661810273663 M397.35434644668254,398.14061401190145 L397.35432980804933,397.91711145581985 M398.27635858570886,398.48973791654146 L397.35434644668254,398.14061401190145 M398.2763624054004,398.2661810273663 L397.35432980804933,397.91711145581985 M396.5859560516826,397.8344115556024 L396.5859223724945,397.6109566564211 M397.35434644668254,398.14061401190145 L396.5859560516826,397.8344115556024 M397.35432980804933,397.91711145581985 L396.5859223724945,397.6109566564211 M395.984029080018,397.6046950572171 L395.9839820573484,397.3812759129468 M396.5859560516826,397.8344115556024 L395.984029080018,397.6046950572171 M396.5859223724945,397.6109566564211 L395.9839820573484,397.3812759129468 M395.77248677337866,397.5197071938791 L395.7724350625862,397.2963012782709 M395.984029080018,397.6046950572171 L395.77248677337866,397.5197071938791 M395.9839820573484,397.3812759129468 L395.7724350625862,397.2963012782709 M395.88698889093286,397.46701735504 L395.8869397214783,397.24361964092 M395.77248677337866,397.5197071938791 L395.88698889093286,397.46701735504 M395.7724350625862,397.2963012782709 L395.8869397214783,397.24361964092 M396.1292143296375,397.32353571510464 L396.1291705367135,397.10016033525574 M395.88698889093286,397.46701735504 L396.1292143296375,397.32353571510464 M395.8869397214783,397.24361964092 L396.1291705367135,397.10016033525574 M396.64344712321247,397.1436233162966 L396.6434147371177,396.92027594253705 M396.1292143296375,397.32353571510464 L396.271506527372,397.2365022510366 M396.271506527372,397.2365022510366 L396.37909019892413,397.19518383587723 M396.37909019892413,397.19518383587723 L396.49408248834084,397.16789501346 M396.49408248834084,397.16789501346 L396.64344712321247,397.1436233162966 M396.1291705367135,397.10016033525574 L396.2714658923381,397.01314041912167 M396.2714658923381,397.01314041912167 L396.3790519504581,396.97182843582516 M396.3790519504581,396.97182843582516 L396.4940467901377,396.94454386137653 M396.4940467901377,396.94454386137653 L396.6434147371177,396.92027594253705 M397.5270451024507,397.2697230210133 L397.5270323044651,397.04635601780535 M396.64344712321247,397.1436233162966 L396.7907039470446,397.1281632613911 M396.7907039470446,397.1281632613911 L396.90358845306815,397.1254244738731 M396.90358845306815,397.1254244738731 L397.00612789023705,397.131140373748 M397.00612789023705,397.131140373748 L397.1094653544421,397.14517669805946 M397.1094653544421,397.14517669805946 L397.2162373555362,397.1679093529052 M397.2162373555362,397.1679093529052 L397.3637122787856,397.21082014878925 M397.3637122787856,397.21082014878925 L397.5270451024507,397.2697230210133 M396.6434147371177,396.92027594253705 L396.7906748259966,396.9048182942765 M396.7906748259966,396.9048182942765 L396.90356183470027,396.90207993310264 M396.90356183470027,396.90207993310264 L397.0061035450278,396.90779494318986 M397.0061035450278,396.90779494318986 L397.1094432999583,396.9218290824876 M397.1094432999583,396.9218290824876 L397.21621766783755,396.9445581985896 M397.21621766783755,396.9445581985896 L397.3636958601128,396.9874623146915 M397.3636958601128,396.9874623146915 L397.5270323044651,397.04635601780535 M398.98112751243536,397.5883030507354 L398.981146959669,397.36488645791917 M397.5270451024507,397.2697230210133 L397.924484738438,397.4036036395265 M397.924484738438,397.4036036395265 L398.3677405285224,397.50072337398734 M398.3677405285224,397.50072337398734 L398.98112751243536,397.5883030507354 M397.5270323044651,397.04635601780535 L397.924480752161,397.18021579626003 M397.924480752161,397.18021579626003 L398.3677463717257,397.27732041331274 M398.3677463717257,397.27732041331274 L398.981146959669,397.36488645791917 M400.68860835051964,397.86619399441577 L400.6886656787362,397.64273414850845 M398.98112751243536,397.5883030507354 L400.68860835051964,397.86619399441577 M398.981146959669,397.36488645791917 L400.6886656787362,397.64273414850845 M400.3799436707523,398.13447589281407 L400.37999416270384,397.91097429202773 M400.68860835051964,397.86619399441577 L400.5636722102553,397.99788251811395 M400.5636722102553,397.99788251811395 L400.3799436707523,398.13447589281407 M400.6886656787362,397.64273414850845 L400.56372677275755,397.77440217614037 M400.56372677275755,397.77440217614037 L400.37999416270384,397.91097429202773 M399.54804003827223,398.43219538002603 L399.54807207993196,398.2086474457251 M400.3799436707523,398.13447589281407 L399.54804003827223,398.43219538002603 M400.37999416270384,397.91097429202773 L399.54807207993196,398.2086474457251 M398.82049077892236,398.67740134701705 L398.8205066773438,398.45381525413 M399.54804003827223,398.43219538002603 L398.82049077892236,398.67740134701705 M399.54807207993196,398.2086474457251 L398.8205066773438,398.45381525413 M398.82049077892236,398.67740134701705 L398.27635858570886,398.48973791654146 M398.8205066773438,398.45381525413 L398.2763624054004,398.2661810273663 M393.2464973740824,400.4897130011268 L393.2463893905734,400.26584494482097 M392.9804567757361,400.3632408068042 L392.9803428898239,400.1393924235564 M393.2464973740824,400.4897130011268 L392.9804567757361,400.3632408068042 M393.2463893905734,400.26584494482097 L392.9803428898239,400.1393924235564 M391.3041212616054,399.80359873392644 L391.30397018318945,399.579837411144 M392.9804567757361,400.3632408068042 L392.24454172743407,400.0792465459008 M392.24454172743407,400.0792465459008 L391.6945844091467,399.902831640664 M391.6945844091467,399.902831640664 L391.3041212616054,399.80359873392644 M392.9803428898239,400.1393924235564 L392.24441151381353,399.8554423407097 M392.24441151381353,399.8554423407097 L391.694441994417,399.679054879953 M391.694441994417,399.679054879953 L391.30397018318945,399.579837411144 M390.9300109171803,399.71633437977033 L390.92985153821155,399.49258663322405 M391.3041212616054,399.80359873392644 L391.10514476412595,399.7637482458442 M391.10514476412595,399.7637482458442 L390.9300109171803,399.71633437977033 M391.30397018318945,399.579837411144 L391.10498926997553,399.5399931228065 M391.10498926997553,399.5399931228065 L390.92985153821155,399.49258663322405 M390.87400624061524,399.60062966845635 L390.8738456322454,399.37689992319656 M390.9300109171803,399.71633437977033 L390.8266672678766,399.67727657549347 M390.8266672678766,399.67727657549347 L390.81236978670034,399.6671159809042 M390.81236978670034,399.6671159809042 L390.8076482368438,399.6545836249518 M390.8076482368438,399.6545836249518 L390.81691211862517,399.64014751765205 M390.81691211862517,399.64014751765205 L390.87400624061524,399.60062966845635 M390.92985153821155,399.49258663322405 L390.8265055981003,399.4535349054898 M390.8265055981003,399.4535349054898 L390.81220780061693,399.4433758916763 M390.81220780061693,399.4433758916763 L390.8074861474874,399.43084548550104 M390.8074861474874,399.43084548550104 L390.81675023691696,399.41641162417 M390.81675023691696,399.41641162417 L390.8738456322454,399.37689992319656 M391.3177334071213,399.4692481802255 L391.3175826711814,399.24553887581106 M390.87400624061524,399.60062966845635 L391.01372039735315,399.52867326747565 M391.01372039735315,399.52867326747565 L391.1165875742777,399.4951945040695 M391.1165875742777,399.4951945040695 L391.1984109316196,399.4793695992433 M391.1984109316196,399.4793695992433 L391.2562057643633,399.47285586268106 M391.2562057643633,399.47285586268106 L391.3177334071213,399.4692481802255 M390.8738456322454,399.37689992319656 L391.0135629015167,399.30495471739835 M391.0135629015167,399.30495471739835 L391.11643236747034,399.27148116277624 M391.11643236747034,399.27148116277624 L391.19825754416433,399.2556587200773 M391.19825754416433,399.2556587200773 L391.25605366139166,399.2491459969611 M391.25605366139166,399.2491459969611 L391.3175826711814,399.24553887581106 M391.92859124963707,399.62226613204626 L391.9284540648304,399.3985330205594 M391.3177334071213,399.4692481802255 L391.3826599435161,399.4684193056941 M391.3826599435161,399.4684193056941 L391.42646786331164,399.4712408816886 M391.42646786331164,399.4712408816886 L391.4769689619336,399.47919775817235 M391.4769689619336,399.47919775817235 L391.63843335670003,399.5241862068525 M391.63843335670003,399.5241862068525 L391.92859124963707,399.62226613204626 M391.3175826711814,399.24553887581106 L391.38251064976333,399.2447101302411 M391.38251064976333,399.2447101302411 L391.426319542247,399.2475312672372 M391.426319542247,399.2475312672372 L391.476821761624,399.25548690574226 M391.476821761624,399.25548690574226 L391.638289737583,399.300468354891 M391.638289737583,399.300468354891 L391.9284540648304,399.3985330205594 M393.6169017422798,400.126853443279 L393.6168020212692,399.90304183217563 M391.92859124963707,399.62226613204626 L393.0733082080379,400.01200292543615 M393.0733082080379,400.01200292543615 L393.35377645728283,400.086898579931 M393.35377645728283,400.086898579931 L393.6169017422798,400.126853443279 M391.9284540648304,399.3985330205594 L393.07319641711524,399.78820918105816 M393.07319641711524,399.78820918105816 L393.35367089227054,399.86309318435474 M393.35367089227054,399.86309318435474 L393.6168020212692,399.90304183217563 M394.0313786405063,400.2079248946406 L394.0312881244595,399.9841006719338 M393.6169017422798,400.126853443279 L393.8947026503688,400.17290772656446 M393.8947026503688,400.17290772656446 L393.9888771259094,400.19348215968574 M393.9888771259094,400.19348215968574 L394.0170509987317,400.20159212792123 M394.0170509987317,400.20159212792123 L394.0313786405063,400.2079248946406 M393.6168020212692,399.90304183217563 L393.89460909942005,399.9490889511554 M393.89460909942005,399.9490889511554 L393.9887856663529,399.9696601836967 M393.9887856663529,399.9696601836967 L394.0169601647225,399.97776889034134 M394.0169601647225,399.97776889034134 L394.0312881244595,399.9841006719338 M393.67116437286006,400.3670764121923 L393.67106583891234,400.14322743229843 M394.0313786405063,400.2079248946406 L394.0358644927139,400.223731440263 M394.0358644927139,400.223731440263 L394.02630143180255,400.2330014966851 M394.02630143180255,400.2330014966851 L394.0083824328484,400.24378191144183 M394.0083824328484,400.24378191144183 L393.8946527358943,400.2903616720899 M393.8946527358943,400.2903616720899 L393.67116437286006,400.3670764121923 M394.0312881244595,399.9841006719338 L394.035774075226,399.9999047586921 M394.035774075226,399.9999047586921 L394.0262108011141,400.00917337306953 M394.0262108011141,400.00917337306953 L394.00829140313846,400.0199521108349 M394.00829140313846,400.0199521108349 L393.8945591751081,400.0665246256255 M393.8945591751081,400.0665246256255 L393.67106583891234,400.14322743229843 M393.67116437286006,400.3670764121923 L393.3828621629551,400.45756154710466 M393.3828621629551,400.45756154710466 L393.2873242958467,400.4832701524996 M393.2873242958467,400.4832701524996 L393.2464973740824,400.4897130011268 M393.67106583891234,400.14322743229843 L393.382757213392,400.23369849198224 M393.382757213392,400.23369849198224 L393.28721722043116,400.25940309838086 M393.28721722043116,400.25940309838086 L393.2463893905734,400.26584494482097 M394.9693897566271,399.7783183810038 L394.969320110829,399.55456099120903 M394.57160625300924,399.575094436337 L394.57152778251134,399.3513686639006 M394.9693897566271,399.7783183810038 L394.57160625300924,399.575094436337 M394.969320110829,399.55456099120903 L394.57152778251134,399.3513686639006 M393.89305854891325,399.3382256037363 L393.8929650234761,399.11453668493306 M394.57160625300924,399.575094436337 L394.3344394458473,399.46206299371613 M394.3344394458473,399.46206299371613 L394.16413909686673,399.4082844071553 M394.16413909686673,399.4082844071553 L393.89305854891325,399.3382256037363 M394.57152778251134,399.3513686639006 L394.33435571469636,399.23835480721857 M394.33435571469636,399.23835480721857 L394.16405158692254,399.18458458792975 M394.16405158692254,399.18458458792975 L393.8929650234761,399.11453668493306 M392.8635353429771,398.99195494585 L392.86341898512933,398.76831990570946 M393.89305854891325,399.3382256037363 L393.27047123291436,399.16555061054834 M393.27047123291436,399.16555061054834 L392.8635353429771,398.99195494585 M393.8929650234761,399.11453668493306 L393.2703638953123,398.9418885589205 M393.2703638953123,398.9418885589205 L392.86341898512933,398.76831990570946 M392.73550965519206,398.7028887957654 L392.73539048222926,398.47929873668136 M392.8635353429771,398.99195494585 L392.67923405658826,398.87207954183845 M392.67923405658826,398.87207954183845 L392.63986511801164,398.82020310248174 M392.63986511801164,398.82020310248174 L392.63360886906594,398.78523734486623 M392.63360886906594,398.78523734486623 L392.64972022965804,398.75114868009564 M392.64972022965804,398.75114868009564 L392.6815476801005,398.72624557384484 M392.6815476801005,398.72624557384484 L392.7060173804362,398.7140533527204 M392.7060173804362,398.7140533527204 L392.73550965519206,398.7028887957654 M392.86341898512933,398.76831990570946 L392.67911361824196,398.648463154933 M392.67911361824196,398.648463154933 L392.63974381065765,398.59659478797676 M392.63974381065765,398.59659478797676 L392.63348742620224,398.5616344713742 M392.63348742620224,398.5616344713742 L392.6495991477329,398.5275511111739 M392.6495991477329,398.5275511111739 L392.68142730707797,398.50265188014555 M392.68142730707797,398.50265188014555 L392.7058975517531,398.49046155628525 M392.7058975517531,398.49046155628525 L392.73539048222926,398.47929873668136 M393.63125180844406,398.86277930812514 L393.6311525061425,398.6391643684055 M392.73550965519206,398.7028887957654 L392.79846745593477,398.68577531757717 M392.79846745593477,398.68577531757717 L392.84098734996553,398.67902425614204 M392.84098734996553,398.67902425614204 L392.8866174194922,398.67609200606705 M392.8866174194922,398.67609200606705 L392.93472987087995,398.6772341668694 M392.93472987087995,398.6772341668694 L393.00733605259745,398.68532605975827 M393.00733605259745,398.68532605975827 L393.1171205377706,398.707153682867 M393.1171205377706,398.707153682867 L393.25442213732424,398.74347373459267 M393.25442213732424,398.74347373459267 L393.63125180844406,398.86277930812514 M392.73539048222926,398.47929873668136 L392.79834968208417,398.46218792158277 M392.79834968208417,398.46218792158277 L392.840870520567,398.45543791070736 M392.840870520567,398.45543791070736 L392.88650160322055,398.452506116932 M392.88650160322055,398.452506116932 L392.9346151224601,398.45364809999796 M392.9346151224601,398.45364809999796 L393.0072229150964,398.4617387336747 M393.0072229150964,398.4617387336747 L393.1170098352611,398.4835629601102 M393.1170098352611,398.4835629601102 L393.25431447947557,398.5198773599824 M393.25431447947557,398.5198773599824 L393.6311525061425,398.6391643684055 M394.3575913880929,399.04232770780925 L394.3575081989295,398.81868482955696 M393.63125180844406,398.86277930812514 L394.07519515928266,399.00449996569085 M394.07519515928266,399.00449996569085 L394.19276312473465,399.03036543635443 M394.19276312473465,399.03036543635443 L394.2699636805776,399.0386559760986 M394.2699636805776,399.0386559760986 L394.3575913880929,399.04232770780925 M393.6311525061425,398.6391643684055 L394.07510570261155,398.78086297350956 M394.07510570261155,398.78086297350956 L394.19267627662504,398.80672441944955 M394.19267627662504,398.80672441944955 L394.2698785460167,398.81501366917263 M394.2698785460167,398.81501366917263 L394.3575081989295,398.81868482955696 M394.95896931019234,399.1958248288907 L394.9588994652296,398.9721580667032 M394.3575913880929,399.04232770780925 L394.4902817243677,399.04936352367395 M394.4902817243677,399.04936352367395 L394.5467736133914,399.05780890633423 M394.5467736133914,399.05780890633423 L394.61358262487846,399.07400110826205 M394.61358262487846,399.07400110826205 L394.698327695585,399.1008438019261 M394.698327695585,399.1008438019261 L394.95896931019234,399.1958248288907 M394.3575081989295,398.81868482955696 L394.49020148095167,398.8257195506404 M394.49020148095167,398.8257195506404 L394.5466946237723,398.8341636191916 M394.5466946237723,398.8341636191916 L394.61350511767694,398.8503533016053 M394.61350511767694,398.8503533016053 L394.6982520684582,398.8771918185541 M394.6982520684582,398.8771918185541 L394.9588994652296,398.9721580667032 M395.3548948629526,399.34346091087133 L395.35483380284927,399.1197711775027 M394.95896931019234,399.1958248288907 L395.3548948629526,399.34346091087133 M394.9588994652296,398.9721580667032 L395.35483380284927,399.1197711775027 M395.80000373981886,399.3891634742834 L395.7999525632187,399.1654666300593 M395.3548948629526,399.34346091087133 L395.80000373981886,399.3891634742834 M395.35483380284927,399.1197711775027 L395.7999525632187,399.1654666300593 M396.2451448958272,399.43484647000514 L396.24510360416605,399.21114251804386 M395.80000373981886,399.3891634742834 L396.2451448958272,399.43484647000514 M395.7999525632187,399.1654666300593 L396.24510360416605,399.21114251804386 M395.9575075191273,399.5324770812856 L395.95745983520317,399.3087579393956 M396.2451448958272,399.43484647000514 L395.9575075191273,399.5324770812856 M396.24510360416605,399.21114251804386 L395.95745983520317,399.3087579393956 M395.5306509457241,399.6965131137883 L395.530593772924,399.47276845099196 M395.9575075191273,399.5324770812856 L395.5306509457241,399.6965131137883 M395.95745983520317,399.3087579393956 L395.530593772924,399.47276845099196 M395.2616748505106,399.80926120528017 L395.26161169672326,399.58549900156265 M395.5306509457241,399.6965131137883 L395.2616748505106,399.80926120528017 M395.530593772924,399.47276845099196 L395.26161169672326,399.58549900156265 M395.1318440870011,399.85562687480774 L395.13177804631965,399.6318574578251 M395.2616748505106,399.80926120528017 L395.1318440870011,399.85562687480774 M395.26161169672326,399.58549900156265 L395.13177804631965,399.6318574578251 M395.1318440870011,399.85562687480774 L394.9693897566271,399.7783183810038 M395.13177804631965,399.6318574578251 L394.969320110829,399.55456099120903" stroke="black"  stroke-width="4"  fill="red"/></svg>