<svg viewBox="0 0 800 800" xmlns="http://www.w3.org/2000/svg"><path d="M556.4384668481978,308.776083492369 L243.21331174535086,489.4156653852079 M243.21331174535086,489.4156653852079 L243.12601403474142,398.8444273593162 M243.12601403474142,398.8444273593162 L556.5253771075579,218.3057595610389 M556.4384668481978,308.776083492369 L556.5253771075579,218.3057595610389 M243.21331174535086,489.4156653852079 L556.4384668481978,308.776083492369 M399.99999999999994,38.567706697565654 L-70.09846294817208,308.47468263270355 M870.098462948172,308.4746826327036 L399.99999999999994,38.567706697565654 M-70.09846294817208,308.47468263270355 L400,580.1890713531216 M400,580.1890713531216 L870.098462948172,308.4746826327036 M556.5253771075579,218.3057595610389 L243.12601403474142,398.8444273593162 M400,219.20645692258097 L399.99999999999994,38.567706697565654 M-69.57613132267409,489.4156653852079 L-70.09846294817208,308.47468263270355 M400,219.20645692258097 L-69.57613132267409,489.4156653852079 M869.576131322674,489.4156653852079 L870.098462948172,308.4746826327036 M869.576131322674,489.4156653852079 L400,219.20645692258097 M400,761.4322933024343 L400,580.1890713531216 M-69.57613132267409,489.4156653852079 L400,761.4322933024343 M400,761.4322933024343 L869.576131322674,489.4156653852079" stroke="black"  stroke-width="4"  fill="red"/></svg>