<svg viewBox="0 0 800 800" xmlns="http://www.w3.org/2000/svg"><path d="M400,390.3939180156643 L400,377.95359360809687 M352.5447137233279,405.86846788849226 L352.43902266257805,393.185540598513 M400,390.3939180156643 L352.5447137233279,405.86846788849226 M400,377.95359360809687 L352.43902266257805,393.185540598513 M447.45528627667204,405.86846788849226 L447.56097733742195,393.185540598513 M447.45528627667204,405.86846788849226 L400,390.3939180156643 M447.56097733742195,393.185540598513 L400,377.95359360809687 M400,422.04640639190313 L400,409.1114259484015 M352.5447137233279,405.86846788849226 L400,422.04640639190313 M352.43902266257805,393.185540598513 L400,409.1114259484015 M400,422.04640639190313 L447.45528627667204,405.86846788849226 M400,409.1114259484015 L447.56097733742195,393.185540598513 M400,383.9660280684897 L371.46341359754683,393.185540598513 M371.46341359754683,393.185540598513 L400,402.65479161693423 M400,402.65479161693423 L428.53658640245317,393.185540598513 M428.53658640245317,393.185540598513 L400,383.9660280684897 M400,390.24104101362764 L400,383.9660280684897 M371.49515618531376,399.5340581518953 L371.46341359754683,393.185540598513 M400,390.24104101362764 L371.49515618531376,399.5340581518953 M400,409.0785210751893 L400,402.65479161693423 M371.49515618531376,399.5340581518953 L400,409.0785210751893 M428.50484381468624,399.5340581518953 L428.53658640245317,393.185540598513 M400,409.0785210751893 L428.50484381468624,399.5340581518953 M428.50484381468624,399.5340581518953 L400,390.24104101362764" stroke="black"  stroke-width="4"  fill="red"/></svg>